<svg width="150" height="150" viewBox="0 0 48 15" fill="none" xmlns="http://www.w3.org/2000/svg">
<path d="M12.2271 14.8853C12.131 14.8853 12.0457 14.8637 11.9713 14.8203C11.8968 14.7779 11.8389 14.7185 11.7974 14.6422C11.7559 14.5659 11.7352 14.4792 11.7352 14.3821C11.7352 14.285 11.7559 14.1979 11.7974 14.1206C11.8389 14.0442 11.8968 13.9844 11.9713 13.9411C12.0457 13.8986 12.131 13.8774 12.2271 13.8774C12.3233 13.8774 12.409 13.8986 12.4844 13.9411C12.5589 13.9844 12.6168 14.0442 12.6583 14.1206C12.6997 14.1979 12.7205 14.285 12.7205 14.3821C12.7205 14.4792 12.6997 14.5659 12.6583 14.6422C12.6168 14.7185 12.5589 14.7779 12.4844 14.8203C12.409 14.8637 12.3233 14.8853 12.2271 14.8853ZM12.2271 14.8203C12.3129 14.8203 12.3878 14.8024 12.4519 14.7666C12.515 14.7308 12.564 14.6794 12.5989 14.6125C12.6328 14.5465 12.6498 14.4697 12.6498 14.3821C12.6498 14.2945 12.6328 14.2177 12.5989 14.1517C12.564 14.0857 12.515 14.0344 12.4519 13.9976C12.3878 13.9608 12.3129 13.9425 12.2271 13.9425C12.1423 13.9425 12.0683 13.9608 12.0052 13.9976C11.9411 14.0344 11.8921 14.0857 11.8582 14.1517C11.8233 14.2177 11.8059 14.2945 11.8059 14.3821C11.8059 14.4697 11.8233 14.5465 11.8582 14.6125C11.8921 14.6794 11.9406 14.7308 12.0038 14.7666C12.0669 14.8024 12.1414 14.8203 12.2271 14.8203ZM12.2314 14.7072C12.2889 14.7072 12.3412 14.6936 12.3883 14.6662C12.4354 14.6398 12.4726 14.6022 12.5 14.5531C12.5263 14.5041 12.5395 14.4476 12.5395 14.3835C12.5395 14.3194 12.5259 14.2624 12.4985 14.2125C12.4712 14.1635 12.4345 14.1253 12.3883 14.098C12.3412 14.0716 12.2889 14.0584 12.2314 14.0584C12.1597 14.0584 12.098 14.0772 12.0462 14.1149C11.9944 14.1536 11.9595 14.204 11.9416 14.2662H12.0886C12.1008 14.236 12.1183 14.2129 12.1409 14.1969C12.1635 14.1809 12.1937 14.1729 12.2314 14.1729C12.2813 14.1729 12.3214 14.1908 12.3515 14.2266C12.3817 14.2634 12.3968 14.3157 12.3968 14.3835C12.3968 14.4514 12.3817 14.5032 12.3515 14.539C12.3214 14.5748 12.2813 14.5927 12.2314 14.5927C12.1956 14.5927 12.1654 14.5847 12.1409 14.5687C12.1155 14.5527 12.098 14.5296 12.0886 14.4994H11.9416C11.9595 14.5654 11.9939 14.6163 12.0448 14.6521C12.0957 14.6889 12.1579 14.7072 12.2314 14.7072Z" fill="#B0A5A5" fill-opacity="0.05"/>
<path d="M11.129 14.1093C11.0385 14.1875 10.9674 14.2516 10.9155 14.3015C10.8628 14.3524 10.8189 14.4052 10.7841 14.4598C10.7492 14.5145 10.7318 14.5692 10.7318 14.6238C10.7318 14.6804 10.7454 14.7247 10.7728 14.7567C10.7992 14.7887 10.8411 14.8048 10.8986 14.8048C10.9542 14.8048 10.9975 14.7869 11.0286 14.7511C11.0588 14.7162 11.0748 14.6691 11.0767 14.6097H11.2322C11.2294 14.7171 11.1973 14.7991 11.1361 14.8557C11.0739 14.9131 10.9952 14.9419 10.9 14.9419C10.7973 14.9419 10.7172 14.9136 10.6597 14.8571C10.6012 14.8005 10.572 14.7251 10.572 14.6309C10.572 14.563 10.5895 14.4975 10.6243 14.4344C10.6583 14.3722 10.6993 14.3161 10.7473 14.2662C10.7944 14.2172 10.8548 14.1602 10.9283 14.0951L10.9919 14.0386H10.5438V13.9043H11.2308V14.0216L11.129 14.1093Z" fill="#B0A5A5" fill-opacity="0.05"/>
<path d="M10.4022 14.4189C10.4022 14.5819 10.3749 14.7091 10.3202 14.8005C10.2646 14.8929 10.1694 14.9391 10.0347 14.9391C9.89989 14.9391 9.80518 14.8929 9.75052 14.8005C9.69491 14.7091 9.66711 14.5819 9.66711 14.4189C9.66711 14.2539 9.69491 14.1248 9.75052 14.0315C9.80518 13.9392 9.89989 13.893 10.0347 13.893C10.1694 13.893 10.2646 13.9392 10.3202 14.0315C10.3749 14.1248 10.4022 14.2539 10.4022 14.4189ZM9.82544 14.4189C9.82544 14.4952 9.83062 14.5597 9.84099 14.6125C9.85041 14.6653 9.8702 14.7082 9.90036 14.7412C9.93052 14.7751 9.97528 14.792 10.0347 14.792C10.094 14.792 10.1388 14.7751 10.1689 14.7412C10.1991 14.7082 10.2194 14.6653 10.2297 14.6125C10.2392 14.5597 10.2439 14.4952 10.2439 14.4189C10.2439 14.3397 10.2392 14.2733 10.2297 14.2195C10.2203 14.1658 10.2005 14.1225 10.1704 14.0895C10.1393 14.0565 10.094 14.04 10.0347 14.04C9.97528 14.04 9.93052 14.0565 9.90036 14.0895C9.86926 14.1225 9.849 14.1658 9.83957 14.2195C9.83015 14.2733 9.82544 14.3397 9.82544 14.4189Z" fill="#B0A5A5" fill-opacity="0.05"/>
<path d="M9.40754 14.1093C9.31707 14.1875 9.24592 14.2516 9.19408 14.3015C9.14131 14.3524 9.09749 14.4052 9.06262 14.4598C9.02775 14.5145 9.01031 14.5692 9.01031 14.6238C9.01031 14.6804 9.02398 14.7247 9.05131 14.7567C9.0777 14.7887 9.11963 14.8048 9.17712 14.8048C9.23272 14.8048 9.27607 14.7869 9.30717 14.7511C9.33733 14.7162 9.35335 14.6691 9.35524 14.6097H9.51073C9.50791 14.7171 9.47586 14.7991 9.41461 14.8557C9.35241 14.9131 9.27372 14.9419 9.17853 14.9419C9.07581 14.9419 8.99571 14.9136 8.93822 14.8571C8.87979 14.8005 8.85058 14.7251 8.85058 14.6309C8.85058 14.563 8.86801 14.4975 8.90288 14.4344C8.93681 14.3722 8.9778 14.3161 9.02586 14.2662C9.07298 14.2172 9.1333 14.1602 9.20681 14.0951L9.27042 14.0386H8.82231L8.8223 13.9043H9.50932V14.0216L9.40754 14.1093Z" fill="#B0A5A5" fill-opacity="0.05"/>
<path d="M8.70053 14.105V14.2266L8.22555 14.908H8.03047V14.245H7.89901V14.105H8.03047V13.8902H8.1888V14.105H8.70053ZM8.18173 14.744L8.51534 14.245H8.18173V14.744Z" fill="#B0A5A5" fill-opacity="0.05"/>
<path d="M7.43078 14.2831C7.43078 14.3614 7.41476 14.4306 7.38272 14.4909C7.34974 14.5513 7.30544 14.5979 7.24984 14.6309C7.1933 14.6648 7.13063 14.6818 7.06183 14.6818C7.01094 14.6818 6.96099 14.6705 6.91199 14.6479C6.86204 14.6262 6.82246 14.597 6.79325 14.5602V14.9362H6.63068V13.8902H6.79325V14.0075C6.81963 13.9698 6.85639 13.9387 6.90351 13.9142C6.94969 13.8897 7.00293 13.8774 7.06325 13.8774C7.1311 13.8774 7.1933 13.8944 7.24984 13.9283C7.30544 13.9632 7.34974 14.0113 7.38272 14.0725C7.41476 14.1347 7.43078 14.2049 7.43078 14.2831ZM6.79325 14.2803C6.79325 14.334 6.80455 14.3807 6.82717 14.4203C6.84885 14.4598 6.87759 14.49 6.9134 14.5107C6.94921 14.5315 6.98785 14.5418 7.02932 14.5418C7.07078 14.5418 7.10942 14.5315 7.14523 14.5107C7.18105 14.4909 7.21026 14.4613 7.23288 14.4217C7.25455 14.383 7.26539 14.3369 7.26539 14.2831C7.26539 14.2294 7.25455 14.1823 7.23288 14.1418C7.21026 14.1013 7.18105 14.0702 7.14523 14.0485C7.10848 14.0278 7.06984 14.0174 7.02932 14.0174C6.98785 14.0174 6.94921 14.0278 6.9134 14.0485C6.87759 14.0692 6.84885 14.0994 6.82717 14.139C6.80455 14.1795 6.79325 14.2266 6.79325 14.2803Z" fill="#B0A5A5" fill-opacity="0.05"/>
<path d="M5.70514 14.2987C5.70514 14.2695 5.70703 14.2431 5.7108 14.2195H6.30593C6.30121 14.1573 6.27812 14.1074 6.23666 14.0697C6.19519 14.032 6.1443 14.0131 6.08399 14.0131C5.99729 14.0131 5.93603 14.0494 5.90022 14.122H5.72635C5.74991 14.0504 5.79279 13.9915 5.85498 13.9453C5.91624 13.9001 5.99258 13.8774 6.08399 13.8774C6.15844 13.8774 6.22535 13.8939 6.28472 13.9269C6.34315 13.9608 6.38933 14.008 6.42326 14.0683C6.45624 14.1295 6.47273 14.2002 6.47273 14.2803C6.47273 14.3604 6.45671 14.4306 6.42467 14.4909C6.39169 14.5522 6.34598 14.5993 6.28755 14.6323C6.22818 14.6653 6.16032 14.6818 6.08399 14.6818C6.01048 14.6818 5.94498 14.6658 5.8875 14.6337C5.83001 14.6017 5.78525 14.5564 5.7532 14.498C5.72116 14.4405 5.70514 14.3741 5.70514 14.2987ZM5.87336 14.3496C5.8743 14.409 5.89551 14.4566 5.93697 14.4924C5.97844 14.5282 6.0298 14.5461 6.09106 14.5461C6.14666 14.5461 6.19425 14.5282 6.23383 14.4924C6.27341 14.4575 6.29697 14.4099 6.30451 14.3496H5.87336Z" fill="#B0A5A5" fill-opacity="0.05"/>
<path d="M5.24545 14.0344L5.02493 14.6691H4.85388L5.15074 13.8902H5.34299L5.63844 14.6691H5.46598L5.24545 14.0344Z" fill="#B0A5A5" fill-opacity="0.05"/>
<path d="M4.65008 14.7723C4.6793 14.7723 4.7038 14.7822 4.72359 14.8019C4.74338 14.8217 4.75327 14.8462 4.75327 14.8755C4.75327 14.9047 4.74338 14.9292 4.72359 14.949C4.7038 14.9687 4.6793 14.9786 4.65008 14.9786C4.62181 14.9786 4.59778 14.9687 4.57799 14.949C4.5582 14.9292 4.5483 14.9047 4.5483 14.8755C4.5483 14.8462 4.5582 14.8217 4.57799 14.8019C4.59778 14.7822 4.62181 14.7723 4.65008 14.7723ZM4.57092 14.6691V13.8902H4.73207V14.6691H4.57092Z" fill="#B0A5A5" fill-opacity="0.05"/>
<path d="M3.96636 14.6818C3.9051 14.6818 3.85044 14.6691 3.80238 14.6436C3.75337 14.6182 3.71521 14.5805 3.68788 14.5305C3.66055 14.4806 3.64688 14.4203 3.64688 14.3496V13.8902H3.80662V14.3256C3.80662 14.3953 3.82406 14.4485 3.85892 14.4853C3.89379 14.523 3.94138 14.5418 4.0017 14.5418C4.06201 14.5418 4.11008 14.523 4.14589 14.4853C4.18076 14.4485 4.19819 14.3953 4.19819 14.3256V13.8902H4.35934V14.6691H4.19819V14.58C4.1718 14.612 4.13835 14.637 4.09782 14.6549C4.05636 14.6728 4.01254 14.6818 3.96636 14.6818Z" fill="#B0A5A5" fill-opacity="0.05"/>
<path d="M3.14022 14.0344L2.9197 14.6691H2.74866L3.04551 13.8902H3.23776L3.53321 14.6691H3.36075L3.14022 14.0344Z" fill="#B0A5A5" fill-opacity="0.05"/>
<path d="M2.54485 14.7723C2.57407 14.7723 2.59857 14.7822 2.61836 14.8019C2.63815 14.8217 2.64805 14.8462 2.64805 14.8755C2.64805 14.9047 2.63815 14.9292 2.61836 14.949C2.59857 14.9687 2.57407 14.9786 2.54485 14.9786C2.51658 14.9786 2.49255 14.9687 2.47276 14.949C2.45297 14.9292 2.44307 14.9047 2.44307 14.8755C2.44307 14.8462 2.45297 14.8217 2.47276 14.8019C2.49255 14.7822 2.51658 14.7723 2.54485 14.7723ZM2.46569 14.6691L2.46569 13.8902H2.62684V14.6691H2.46569Z" fill="#B0A5A5" fill-opacity="0.05"/>
<path d="M1.65616 14.4697V14.334H2.23715L2.23715 14.4697H1.65616Z" fill="#B0A5A5" fill-opacity="0.05"/>
<path d="M1.34522 14.7723C1.37443 14.7723 1.39893 14.7822 1.41872 14.8019C1.43852 14.8217 1.44841 14.8462 1.44841 14.8755C1.44841 14.9047 1.43852 14.9292 1.41872 14.949C1.39893 14.9687 1.37443 14.9786 1.34522 14.9786C1.31694 14.9786 1.29291 14.9687 1.27312 14.949C1.25333 14.9292 1.24344 14.9047 1.24344 14.8755C1.24344 14.8462 1.25333 14.8217 1.27312 14.8019C1.29291 14.7822 1.31694 14.7723 1.34522 14.7723ZM1.26605 14.6691L1.26605 13.8902H1.42721L1.42721 14.6691H1.26605Z" fill="#B0A5A5" fill-opacity="0.05"/>
<path d="M0.866467 14.5376L0.866467 14.1064C0.866467 14.0772 0.85987 14.056 0.846676 14.0428C0.83254 14.0306 0.80898 14.0245 0.775996 14.0245H0.677043V13.8902H0.804268C0.876834 13.8902 0.932435 13.9071 0.971074 13.9411C1.00971 13.975 1.02903 14.0301 1.02903 14.1064V14.5376H1.12092V14.6691H1.02903V14.8627H0.866467V14.6691H0.677043L0.677043 14.5376H0.866467Z" fill="#B0A5A5" fill-opacity="0.05"/>
<path d="M0.572098 11.1639C0.418234 11.1639 0.300535 11.1087 0.219001 10.9982C0.137466 10.8877 0.0966992 10.728 0.0966992 10.5189C0.0966992 10.3098 0.137466 10.15 0.219001 10.0395C0.300535 9.92905 0.418234 9.87381 0.572098 9.87381C0.725961 9.87381 0.84366 9.92905 0.925194 10.0395C1.00673 10.15 1.0475 10.3098 1.0475 10.5189C1.0475 10.728 1.00673 10.8877 0.925194 10.9982C0.84366 11.1087 0.725961 11.1639 0.572098 11.1639ZM0.295933 10.6984L0.798948 10.1796C0.75029 10.0888 0.674673 10.0435 0.572098 10.0435C0.377467 10.0435 0.280152 10.2019 0.280152 10.5189C0.280152 10.5886 0.285412 10.6484 0.295933 10.6984ZM0.572098 10.9943C0.766728 10.9943 0.864044 10.8358 0.864044 10.5189C0.864044 10.4492 0.858783 10.3893 0.848263 10.3393L0.345248 10.8581C0.393905 10.9489 0.469522 10.9943 0.572098 10.9943Z" fill="#0FBE00"/>
<path d="M1.23899 11.1402L1.60195 10.6629L1.24886 10.2092H1.47373L1.73017 10.5406L1.97872 10.2092H2.18387L1.83078 10.6707L2.19374 11.1402H1.96886L1.70256 10.797L1.44414 11.1402H1.23899Z" fill="#0FBE00"/>
<path d="M2.86063 11.1639C2.70677 11.1639 2.58907 11.1087 2.50753 10.9982C2.426 10.8877 2.38523 10.728 2.38523 10.5189C2.38523 10.3098 2.426 10.15 2.50753 10.0395C2.58907 9.92905 2.70677 9.87381 2.86063 9.87381C3.01449 9.87381 3.13219 9.92905 3.21373 10.0395C3.29526 10.15 3.33603 10.3098 3.33603 10.5189C3.33603 10.728 3.29526 10.8877 3.21373 10.9982C3.13219 11.1087 3.01449 11.1639 2.86063 11.1639ZM2.58447 10.6984L3.08748 10.1796C3.03882 10.0888 2.96321 10.0435 2.86063 10.0435C2.666 10.0435 2.56868 10.2019 2.56868 10.5189C2.56868 10.5886 2.57394 10.6484 2.58447 10.6984ZM2.86063 10.9943C3.05526 10.9943 3.15258 10.8358 3.15258 10.5189C3.15258 10.4492 3.14732 10.3893 3.1368 10.3393L2.63378 10.8581C2.68244 10.9489 2.75805 10.9943 2.86063 10.9943Z" fill="#0FBE00"/>
<path d="M4.0049 11.1639C3.85103 11.1639 3.73333 11.1087 3.6518 10.9982C3.57027 10.8877 3.5295 10.728 3.5295 10.5189C3.5295 10.3098 3.57027 10.15 3.6518 10.0395C3.73333 9.92905 3.85103 9.87381 4.0049 9.87381C4.15876 9.87381 4.27646 9.92905 4.35799 10.0395C4.43953 10.15 4.4803 10.3098 4.4803 10.5189C4.4803 10.728 4.43953 10.8877 4.35799 10.9982C4.27646 11.1087 4.15876 11.1639 4.0049 11.1639ZM3.72873 10.6984L4.23175 10.1796C4.18309 10.0888 4.10747 10.0435 4.0049 10.0435C3.81027 10.0435 3.71295 10.2019 3.71295 10.5189C3.71295 10.5886 3.71821 10.6484 3.72873 10.6984ZM4.0049 10.9943C4.19953 10.9943 4.29684 10.8358 4.29684 10.5189C4.29684 10.4492 4.29158 10.3893 4.28106 10.3393L3.77805 10.8581C3.8267 10.9489 3.90232 10.9943 4.0049 10.9943Z" fill="#0FBE00"/>
<path d="M5.14916 11.1639C4.9953 11.1639 4.8776 11.1087 4.79607 10.9982C4.71453 10.8877 4.67377 10.728 4.67377 10.5189C4.67377 10.3098 4.71453 10.15 4.79607 10.0395C4.8776 9.92905 4.9953 9.87381 5.14916 9.87381C5.30303 9.87381 5.42073 9.92905 5.50226 10.0395C5.58379 10.15 5.62456 10.3098 5.62456 10.5189C5.62456 10.728 5.58379 10.8877 5.50226 10.9982C5.42073 11.1087 5.30303 11.1639 5.14916 11.1639ZM4.873 10.6984L5.37601 10.1796C5.32736 10.0888 5.25174 10.0435 5.14916 10.0435C4.95453 10.0435 4.85722 10.2019 4.85722 10.5189C4.85722 10.5886 4.86248 10.6484 4.873 10.6984ZM5.14916 10.9943C5.34379 10.9943 5.44111 10.8358 5.44111 10.5189C5.44111 10.4492 5.43585 10.3893 5.42533 10.3393L4.92231 10.8581C4.97097 10.9489 5.04659 10.9943 5.14916 10.9943Z" fill="#0FBE00"/>
<path d="M6.29343 11.1639C6.13957 11.1639 6.02187 11.1087 5.94033 10.9982C5.8588 10.8877 5.81803 10.728 5.81803 10.5189C5.81803 10.3098 5.8588 10.15 5.94033 10.0395C6.02187 9.92905 6.13957 9.87381 6.29343 9.87381C6.44729 9.87381 6.56499 9.92905 6.64653 10.0395C6.72806 10.15 6.76883 10.3098 6.76883 10.5189C6.76883 10.728 6.72806 10.8877 6.64653 10.9982C6.56499 11.1087 6.44729 11.1639 6.29343 11.1639ZM6.01727 10.6984L6.52028 10.1796C6.47162 10.0888 6.39601 10.0435 6.29343 10.0435C6.0988 10.0435 6.00148 10.2019 6.00148 10.5189C6.00148 10.5886 6.00674 10.6484 6.01727 10.6984ZM6.29343 10.9943C6.48806 10.9943 6.58538 10.8358 6.58538 10.5189C6.58538 10.4492 6.58012 10.3893 6.5696 10.3393L6.06658 10.8581C6.11524 10.9489 6.19085 10.9943 6.29343 10.9943Z" fill="#0FBE00"/>
<path d="M7.4377 11.1639C7.28383 11.1639 7.16613 11.1087 7.0846 10.9982C7.00307 10.8877 6.9623 10.728 6.9623 10.5189C6.9623 10.3098 7.00307 10.15 7.0846 10.0395C7.16613 9.92905 7.28383 9.87381 7.4377 9.87381C7.59156 9.87381 7.70926 9.92905 7.79079 10.0395C7.87233 10.15 7.91309 10.3098 7.91309 10.5189C7.91309 10.728 7.87233 10.8877 7.79079 10.9982C7.70926 11.1087 7.59156 11.1639 7.4377 11.1639ZM7.16153 10.6984L7.66455 10.1796C7.61589 10.0888 7.54027 10.0435 7.4377 10.0435C7.24307 10.0435 7.14575 10.2019 7.14575 10.5189C7.14575 10.5886 7.15101 10.6484 7.16153 10.6984ZM7.4377 10.9943C7.63233 10.9943 7.72964 10.8358 7.72964 10.5189C7.72964 10.4492 7.72438 10.3893 7.71386 10.3393L7.21085 10.8581C7.2595 10.9489 7.33512 10.9943 7.4377 10.9943Z" fill="#0FBE00"/>
<path d="M8.58196 11.1639C8.4281 11.1639 8.3104 11.1087 8.22887 10.9982C8.14733 10.8877 8.10656 10.728 8.10656 10.5189C8.10656 10.3098 8.14733 10.15 8.22887 10.0395C8.3104 9.92905 8.4281 9.87381 8.58196 9.87381C8.73583 9.87381 8.85353 9.92905 8.93506 10.0395C9.01659 10.15 9.05736 10.3098 9.05736 10.5189C9.05736 10.728 9.01659 10.8877 8.93506 10.9982C8.85353 11.1087 8.73583 11.1639 8.58196 11.1639ZM8.3058 10.6984L8.80881 10.1796C8.76016 10.0888 8.68454 10.0435 8.58196 10.0435C8.38733 10.0435 8.29002 10.2019 8.29002 10.5189C8.29002 10.5886 8.29528 10.6484 8.3058 10.6984ZM8.58196 10.9943C8.77659 10.9943 8.87391 10.8358 8.87391 10.5189C8.87391 10.4492 8.86865 10.3893 8.85813 10.3393L8.35511 10.8581C8.40377 10.9489 8.47939 10.9943 8.58196 10.9943Z" fill="#0FBE00"/>
<path d="M9.74596 11.1639C9.59867 11.1639 9.48294 11.1146 9.39878 11.016C9.31461 10.916 9.27253 10.7753 9.27253 10.5938C9.27253 10.3637 9.34223 10.1875 9.48163 10.0652C9.62234 9.94154 9.8288 9.87776 10.101 9.87381L10.1069 10.0395C9.71242 10.0487 9.49741 10.1953 9.4619 10.4794H9.46585C9.5579 10.39 9.66639 10.3453 9.79133 10.3453C9.87154 10.3453 9.94124 10.3624 10.0004 10.3966C10.0609 10.4294 10.1069 10.4755 10.1385 10.5346C10.1714 10.5938 10.1878 10.6622 10.1878 10.7398C10.1878 10.8253 10.1694 10.8996 10.1326 10.9627C10.0958 11.0258 10.0438 11.0751 9.97675 11.1106C9.911 11.1461 9.83407 11.1639 9.74596 11.1639ZM9.7499 10.9943C9.82486 10.9943 9.88601 10.9719 9.93335 10.9272C9.9807 10.8825 10.0044 10.8226 10.0044 10.7477C10.0044 10.6767 9.98267 10.6201 9.93927 10.578C9.89587 10.5346 9.83538 10.5129 9.75779 10.5129C9.69993 10.5129 9.64535 10.5254 9.59406 10.5504C9.54409 10.5754 9.49806 10.6142 9.45598 10.6668C9.46256 10.7694 9.49149 10.8496 9.54278 10.9075C9.59406 10.9653 9.66311 10.9943 9.7499 10.9943Z" fill="#0FBE00"/>
<path d="M10.4188 11.1402V10.9745H10.7837V10.1815L10.5154 10.3887L10.4326 10.2762L10.8409 9.88565H10.9652V10.9745H11.3301V11.1402H10.4188Z" fill="#0FBE00"/>
<path d="M12.0148 11.1639C11.8609 11.1639 11.7432 11.1087 11.6617 10.9982C11.5801 10.8877 11.5394 10.728 11.5394 10.5189C11.5394 10.3098 11.5801 10.15 11.6617 10.0395C11.7432 9.92905 11.8609 9.87381 12.0148 9.87381C12.1686 9.87381 12.2863 9.92905 12.3679 10.0395C12.4494 10.15 12.4902 10.3098 12.4902 10.5189C12.4902 10.728 12.4494 10.8877 12.3679 10.9982C12.2863 11.1087 12.1686 11.1639 12.0148 11.1639ZM11.7386 10.6984L12.2416 10.1796C12.193 10.0888 12.1173 10.0435 12.0148 10.0435C11.8201 10.0435 11.7228 10.2019 11.7228 10.5189C11.7228 10.5886 11.7281 10.6484 11.7386 10.6984ZM12.0148 10.9943C12.2094 10.9943 12.3067 10.8358 12.3067 10.5189C12.3067 10.4492 12.3014 10.3893 12.2909 10.3393L11.7879 10.8581C11.8366 10.9489 11.9122 10.9943 12.0148 10.9943Z" fill="#0FBE00"/>
<path d="M12.6817 11.1402L13.0446 10.6629L12.6915 10.2092H12.9164L13.1728 10.5406L13.4214 10.2092H13.6265L13.2734 10.6707L13.6364 11.1402H13.4115L13.1452 10.797L12.8868 11.1402H12.6817Z" fill="#0FBE00"/>
<path d="M14.3033 11.1639C14.1494 11.1639 14.0317 11.1087 13.9502 10.9982C13.8687 10.8877 13.8279 10.728 13.8279 10.5189C13.8279 10.3098 13.8687 10.15 13.9502 10.0395C14.0317 9.92905 14.1494 9.87381 14.3033 9.87381C14.4572 9.87381 14.5749 9.92905 14.6564 10.0395C14.7379 10.15 14.7787 10.3098 14.7787 10.5189C14.7787 10.728 14.7379 10.8877 14.6564 10.9982C14.5749 11.1087 14.4572 11.1639 14.3033 11.1639ZM14.0271 10.6984L14.5301 10.1796C14.4815 10.0888 14.4059 10.0435 14.3033 10.0435C14.1087 10.0435 14.0113 10.2019 14.0113 10.5189C14.0113 10.5886 14.0166 10.6484 14.0271 10.6984ZM14.3033 10.9943C14.4979 10.9943 14.5952 10.8358 14.5952 10.5189C14.5952 10.4492 14.59 10.3893 14.5795 10.3393L14.0764 10.8581C14.1251 10.9489 14.2007 10.9943 14.3033 10.9943Z" fill="#0FBE00"/>
<path d="M15.4476 11.1639C15.2937 11.1639 15.176 11.1087 15.0945 10.9982C15.0129 10.8877 14.9722 10.728 14.9722 10.5189C14.9722 10.3098 15.0129 10.15 15.0945 10.0395C15.176 9.92905 15.2937 9.87381 15.4476 9.87381C15.6014 9.87381 15.7191 9.92905 15.8007 10.0395C15.8822 10.15 15.923 10.3098 15.923 10.5189C15.923 10.728 15.8822 10.8877 15.8007 10.9982C15.7191 11.1087 15.6014 11.1639 15.4476 11.1639ZM15.1714 10.6984L15.6744 10.1796C15.6258 10.0888 15.5501 10.0435 15.4476 10.0435C15.2529 10.0435 15.1556 10.2019 15.1556 10.5189C15.1556 10.5886 15.1609 10.6484 15.1714 10.6984ZM15.4476 10.9943C15.6422 10.9943 15.7395 10.8358 15.7395 10.5189C15.7395 10.4492 15.7342 10.3893 15.7237 10.3393L15.2207 10.8581C15.2694 10.9489 15.345 10.9943 15.4476 10.9943Z" fill="#0FBE00"/>
<path d="M16.5918 11.1639C16.438 11.1639 16.3203 11.1087 16.2387 10.9982C16.1572 10.8877 16.1164 10.728 16.1164 10.5189C16.1164 10.3098 16.1572 10.15 16.2387 10.0395C16.3203 9.92905 16.438 9.87381 16.5918 9.87381C16.7457 9.87381 16.8634 9.92905 16.9449 10.0395C17.0265 10.15 17.0672 10.3098 17.0672 10.5189C17.0672 10.728 17.0265 10.8877 16.9449 10.9982C16.8634 11.1087 16.7457 11.1639 16.5918 11.1639ZM16.3157 10.6984L16.8187 10.1796C16.77 10.0888 16.6944 10.0435 16.5918 10.0435C16.3972 10.0435 16.2999 10.2019 16.2999 10.5189C16.2999 10.5886 16.3051 10.6484 16.3157 10.6984ZM16.5918 10.9943C16.7865 10.9943 16.8838 10.8358 16.8838 10.5189C16.8838 10.4492 16.8785 10.3893 16.868 10.3393L16.365 10.8581C16.4136 10.9489 16.4893 10.9943 16.5918 10.9943Z" fill="#0FBE00"/>
<path d="M17.7361 11.1639C17.5822 11.1639 17.4645 11.1087 17.383 10.9982C17.3015 10.8877 17.2607 10.728 17.2607 10.5189C17.2607 10.3098 17.3015 10.15 17.383 10.0395C17.4645 9.92905 17.5822 9.87381 17.7361 9.87381C17.89 9.87381 18.0077 9.92905 18.0892 10.0395C18.1707 10.15 18.2115 10.3098 18.2115 10.5189C18.2115 10.728 18.1707 10.8877 18.0892 10.9982C18.0077 11.1087 17.89 11.1639 17.7361 11.1639ZM17.4599 10.6984L17.9629 10.1796C17.9143 10.0888 17.8387 10.0435 17.7361 10.0435C17.5415 10.0435 17.4441 10.2019 17.4441 10.5189C17.4441 10.5886 17.4494 10.6484 17.4599 10.6984ZM17.7361 10.9943C17.9307 10.9943 18.028 10.8358 18.028 10.5189C18.028 10.4492 18.0228 10.3893 18.0123 10.3393L17.5092 10.8581C17.5579 10.9489 17.6335 10.9943 17.7361 10.9943Z" fill="#0FBE00"/>
<path d="M18.8804 11.1639C18.7265 11.1639 18.6088 11.1087 18.5273 10.9982C18.4457 10.8877 18.405 10.728 18.405 10.5189C18.405 10.3098 18.4457 10.15 18.5273 10.0395C18.6088 9.92905 18.7265 9.87381 18.8804 9.87381C19.0342 9.87381 19.1519 9.92905 19.2335 10.0395C19.315 10.15 19.3558 10.3098 19.3558 10.5189C19.3558 10.728 19.315 10.8877 19.2335 10.9982C19.1519 11.1087 19.0342 11.1639 18.8804 11.1639ZM18.6042 10.6984L19.1072 10.1796C19.0586 10.0888 18.9829 10.0435 18.8804 10.0435C18.6857 10.0435 18.5884 10.2019 18.5884 10.5189C18.5884 10.5886 18.5937 10.6484 18.6042 10.6984ZM18.8804 10.9943C19.075 10.9943 19.1723 10.8358 19.1723 10.5189C19.1723 10.4492 19.167 10.3893 19.1565 10.3393L18.6535 10.8581C18.7022 10.9489 18.7778 10.9943 18.8804 10.9943Z" fill="#0FBE00"/>
<path d="M20.0246 11.1639C19.8708 11.1639 19.7531 11.1087 19.6715 10.9982C19.59 10.8877 19.5492 10.728 19.5492 10.5189C19.5492 10.3098 19.59 10.15 19.6715 10.0395C19.7531 9.92905 19.8708 9.87381 20.0246 9.87381C20.1785 9.87381 20.2962 9.92905 20.3777 10.0395C20.4593 10.15 20.5 10.3098 20.5 10.5189C20.5 10.728 20.4593 10.8877 20.3777 10.9982C20.2962 11.1087 20.1785 11.1639 20.0246 11.1639ZM19.7485 10.6984L20.2515 10.1796C20.2028 10.0888 20.1272 10.0435 20.0246 10.0435C19.83 10.0435 19.7327 10.2019 19.7327 10.5189C19.7327 10.5886 19.7379 10.6484 19.7485 10.6984ZM20.0246 10.9943C20.2193 10.9943 20.3166 10.8358 20.3166 10.5189C20.3166 10.4492 20.3113 10.3893 20.3008 10.3393L19.7978 10.8581C19.8464 10.9489 19.9221 10.9943 20.0246 10.9943Z" fill="#0FBE00"/>
<path d="M21.1886 11.1639C21.0413 11.1639 20.9256 11.1146 20.8414 11.016C20.7573 10.916 20.7152 10.7753 20.7152 10.5938C20.7152 10.3637 20.7849 10.1875 20.9243 10.0652C21.065 9.94154 21.2715 9.87776 21.5437 9.87381L21.5496 10.0395C21.1551 10.0487 20.9401 10.1953 20.9046 10.4794H20.9085C21.0006 10.39 21.1091 10.3453 21.234 10.3453C21.3142 10.3453 21.3839 10.3624 21.4431 10.3966C21.5036 10.4294 21.5496 10.4755 21.5812 10.5346C21.614 10.5938 21.6305 10.6622 21.6305 10.7398C21.6305 10.8253 21.6121 10.8996 21.5753 10.9627C21.5384 11.0258 21.4865 11.0751 21.4194 11.1106C21.3537 11.1461 21.2767 11.1639 21.1886 11.1639ZM21.1926 10.9943C21.2675 10.9943 21.3287 10.9719 21.376 10.9272C21.4234 10.8825 21.447 10.8226 21.447 10.7477C21.447 10.6767 21.4253 10.6201 21.3819 10.578C21.3385 10.5346 21.278 10.5129 21.2005 10.5129C21.1426 10.5129 21.088 10.5254 21.0367 10.5504C20.9868 10.5754 20.9407 10.6142 20.8986 10.6668C20.9052 10.7694 20.9342 10.8496 20.9854 10.9075C21.0367 10.9653 21.1058 10.9943 21.1926 10.9943Z" fill="#0FBE00"/>
<path d="M21.8812 11.1402V11.0002C21.8812 10.8476 21.9094 10.7299 21.966 10.6471C22.0225 10.5629 22.1159 10.5024 22.2461 10.4656L22.4019 10.4202C22.4545 10.4058 22.4946 10.3854 22.5223 10.3591C22.5499 10.3328 22.5637 10.2933 22.5637 10.2407C22.5637 10.175 22.542 10.1256 22.4986 10.0928C22.4552 10.0599 22.3927 10.0435 22.3112 10.0435C22.1849 10.0435 22.0732 10.0869 21.9758 10.1736L21.8812 10.0296C21.9456 9.97573 22.012 9.93628 22.0804 9.91129C22.1488 9.88631 22.2251 9.87381 22.3092 9.87381C22.4486 9.87381 22.5565 9.90603 22.6327 9.97047C22.709 10.0349 22.7471 10.127 22.7471 10.2466C22.7471 10.3374 22.7235 10.4104 22.6761 10.4656C22.6288 10.5208 22.5538 10.5629 22.4512 10.5918L22.2954 10.6372C22.2402 10.653 22.1961 10.6734 22.1632 10.6984C22.1304 10.7233 22.106 10.7582 22.0903 10.8029C22.0758 10.8463 22.0672 10.9035 22.0646 10.9745H22.7471V11.1402H21.8812Z" fill="#0FBE00"/>
<path d="M23.4574 11.1639C23.3036 11.1639 23.1859 11.1087 23.1043 10.9982C23.0228 10.8877 22.982 10.728 22.982 10.5189C22.982 10.3098 23.0228 10.15 23.1043 10.0395C23.1859 9.92905 23.3036 9.87381 23.4574 9.87381C23.6113 9.87381 23.729 9.92905 23.8105 10.0395C23.8921 10.15 23.9328 10.3098 23.9328 10.5189C23.9328 10.728 23.8921 10.8877 23.8105 10.9982C23.729 11.1087 23.6113 11.1639 23.4574 11.1639ZM23.1813 10.6984L23.6843 10.1796C23.6356 10.0888 23.56 10.0435 23.4574 10.0435C23.2628 10.0435 23.1655 10.2019 23.1655 10.5189C23.1655 10.5886 23.1707 10.6484 23.1813 10.6984ZM23.4574 10.9943C23.6521 10.9943 23.7494 10.8358 23.7494 10.5189C23.7494 10.4492 23.7441 10.3893 23.7336 10.3393L23.2306 10.8581C23.2792 10.9489 23.3549 10.9943 23.4574 10.9943Z" fill="#0FBE00"/>
<path d="M0.0947266 13.1402L0.457686 12.6629L0.10459 12.2092H0.329467L0.585906 12.5406L0.834454 12.2092H1.03961L0.686509 12.6707L1.04947 13.1402H0.824591L0.558289 12.797L0.299878 13.1402H0.0947266Z" fill="#0FBE00"/>
<path d="M1.71636 13.1639C1.5625 13.1639 1.4448 13.1087 1.36327 12.9982C1.28173 12.8877 1.24097 12.728 1.24097 12.5189C1.24097 12.3098 1.28173 12.15 1.36327 12.0395C1.4448 11.929 1.5625 11.8738 1.71636 11.8738C1.87023 11.8738 1.98793 11.929 2.06946 12.0395C2.151 12.15 2.19176 12.3098 2.19176 12.5189C2.19176 12.728 2.151 12.8877 2.06946 12.9982C1.98793 13.1087 1.87023 13.1639 1.71636 13.1639ZM1.4402 12.6984L1.94321 12.1796C1.89456 12.0888 1.81894 12.0435 1.71636 12.0435C1.52173 12.0435 1.42442 12.2019 1.42442 12.5189C1.42442 12.5886 1.42968 12.6484 1.4402 12.6984ZM1.71636 12.9943C1.91099 12.9943 2.00831 12.8358 2.00831 12.5189C2.00831 12.4492 2.00305 12.3893 1.99253 12.3393L1.48951 12.8581C1.53817 12.9489 1.61379 12.9943 1.71636 12.9943Z" fill="#0FBE00"/>
<path d="M2.86063 13.1639C2.70677 13.1639 2.58907 13.1087 2.50753 12.9982C2.426 12.8877 2.38523 12.728 2.38523 12.5189C2.38523 12.3098 2.426 12.15 2.50753 12.0395C2.58907 11.929 2.70677 11.8738 2.86063 11.8738C3.01449 11.8738 3.13219 11.929 3.21373 12.0395C3.29526 12.15 3.33603 12.3098 3.33603 12.5189C3.33603 12.728 3.29526 12.8877 3.21373 12.9982C3.13219 13.1087 3.01449 13.1639 2.86063 13.1639ZM2.58447 12.6984L3.08748 12.1796C3.03882 12.0888 2.96321 12.0435 2.86063 12.0435C2.666 12.0435 2.56868 12.2019 2.56868 12.5189C2.56868 12.5886 2.57394 12.6484 2.58447 12.6984ZM2.86063 12.9943C3.05526 12.9943 3.15258 12.8358 3.15258 12.5189C3.15258 12.4492 3.14732 12.3893 3.1368 12.3393L2.63378 12.8581C2.68244 12.9489 2.75805 12.9943 2.86063 12.9943Z" fill="#0FBE00"/>
<path d="M4.0049 13.1639C3.85103 13.1639 3.73333 13.1087 3.6518 12.9982C3.57027 12.8877 3.5295 12.728 3.5295 12.5189C3.5295 12.3098 3.57027 12.15 3.6518 12.0395C3.73333 11.929 3.85103 11.8738 4.0049 11.8738C4.15876 11.8738 4.27646 11.929 4.35799 12.0395C4.43953 12.15 4.4803 12.3098 4.4803 12.5189C4.4803 12.728 4.43953 12.8877 4.35799 12.9982C4.27646 13.1087 4.15876 13.1639 4.0049 13.1639ZM3.72873 12.6984L4.23175 12.1796C4.18309 12.0888 4.10747 12.0435 4.0049 12.0435C3.81027 12.0435 3.71295 12.2019 3.71295 12.5189C3.71295 12.5886 3.71821 12.6484 3.72873 12.6984ZM4.0049 12.9943C4.19953 12.9943 4.29684 12.8358 4.29684 12.5189C4.29684 12.4492 4.29158 12.3893 4.28106 12.3393L3.77805 12.8581C3.8267 12.9489 3.90232 12.9943 4.0049 12.9943Z" fill="#0FBE00"/>
<path d="M4.69744 13.1402V12.9745H5.06237V12.1815L4.79409 12.3887L4.71124 12.2762L5.11957 11.8856H5.24385V12.9745H5.60878V13.1402H4.69744Z" fill="#0FBE00"/>
<path d="M6.29343 13.1639C6.13957 13.1639 6.02187 13.1087 5.94033 12.9982C5.8588 12.8877 5.81803 12.728 5.81803 12.5189C5.81803 12.3098 5.8588 12.15 5.94033 12.0395C6.02187 11.929 6.13957 11.8738 6.29343 11.8738C6.44729 11.8738 6.56499 11.929 6.64653 12.0395C6.72806 12.15 6.76883 12.3098 6.76883 12.5189C6.76883 12.728 6.72806 12.8877 6.64653 12.9982C6.56499 13.1087 6.44729 13.1639 6.29343 13.1639ZM6.01727 12.6984L6.52028 12.1796C6.47162 12.0888 6.39601 12.0435 6.29343 12.0435C6.0988 12.0435 6.00148 12.2019 6.00148 12.5189C6.00148 12.5886 6.00674 12.6484 6.01727 12.6984ZM6.29343 12.9943C6.48806 12.9943 6.58538 12.8358 6.58538 12.5189C6.58538 12.4492 6.58012 12.3893 6.5696 12.3393L6.06658 12.8581C6.11524 12.9489 6.19085 12.9943 6.29343 12.9943Z" fill="#0FBE00"/>
<path d="M7.55408 13.1402V12.8581H6.93074V12.7201L7.43178 11.8975H7.63101L7.14772 12.6944H7.55408V12.3078L7.73556 12.2052V12.6944H7.9486V12.8581H7.73556V13.1402H7.55408Z" fill="#0FBE00"/>
<path d="M8.58196 13.1639C8.4281 13.1639 8.3104 13.1087 8.22887 12.9982C8.14733 12.8877 8.10656 12.728 8.10656 12.5189C8.10656 12.3098 8.14733 12.15 8.22887 12.0395C8.3104 11.929 8.4281 11.8738 8.58196 11.8738C8.73583 11.8738 8.85353 11.929 8.93506 12.0395C9.01659 12.15 9.05736 12.3098 9.05736 12.5189C9.05736 12.728 9.01659 12.8877 8.93506 12.9982C8.85353 13.1087 8.73583 13.1639 8.58196 13.1639ZM8.3058 12.6984L8.80881 12.1796C8.76016 12.0888 8.68454 12.0435 8.58196 12.0435C8.38733 12.0435 8.29002 12.2019 8.29002 12.5189C8.29002 12.5886 8.29528 12.6484 8.3058 12.6984ZM8.58196 12.9943C8.77659 12.9943 8.87391 12.8358 8.87391 12.5189C8.87391 12.4492 8.86865 12.3893 8.85813 12.3393L8.35511 12.8581C8.40377 12.9489 8.47939 12.9943 8.58196 12.9943Z" fill="#0FBE00"/>
<path d="M9.72623 13.1639C9.57237 13.1639 9.45467 13.1087 9.37313 12.9982C9.2916 12.8877 9.25083 12.728 9.25083 12.5189C9.25083 12.3098 9.2916 12.15 9.37313 12.0395C9.45467 11.929 9.57237 11.8738 9.72623 11.8738C9.88009 11.8738 9.99779 11.929 10.0793 12.0395C10.1609 12.15 10.2016 12.3098 10.2016 12.5189C10.2016 12.728 10.1609 12.8877 10.0793 12.9982C9.99779 13.1087 9.88009 13.1639 9.72623 13.1639ZM9.45006 12.6984L9.95308 12.1796C9.90442 12.0888 9.82881 12.0435 9.72623 12.0435C9.5316 12.0435 9.43428 12.2019 9.43428 12.5189C9.43428 12.5886 9.43954 12.6484 9.45006 12.6984ZM9.72623 12.9943C9.92086 12.9943 10.0182 12.8358 10.0182 12.5189C10.0182 12.4492 10.0129 12.3893 10.0024 12.3393L9.49938 12.8581C9.54804 12.9489 9.62365 12.9943 9.72623 12.9943Z" fill="#0FBE00"/>
<path d="M10.8705 13.1639C10.7311 13.1639 10.6239 13.1271 10.549 13.0534C10.4753 12.9798 10.4385 12.8746 10.4385 12.7378V11.858H10.62V12.7201C10.62 12.9015 10.7041 12.9923 10.8725 12.9923C11.0408 12.9923 11.125 12.9015 11.125 12.7201V11.858H11.3025V12.7378C11.3025 12.8746 11.265 12.9798 11.1901 13.0534C11.1164 13.1271 11.0099 13.1639 10.8705 13.1639Z" fill="#0FBE00"/>
<path d="M11.9398 13.0692V12.6707H11.5413V12.5189H11.9398V12.1224H12.0897V12.5189H12.4882V12.6707H12.0897V13.0692H11.9398Z" fill="#0FBE00"/>
<path d="M13.159 13.1639C13.0052 13.1639 12.8875 13.1087 12.8059 12.9982C12.7244 12.8877 12.6836 12.728 12.6836 12.5189C12.6836 12.3098 12.7244 12.15 12.8059 12.0395C12.8875 11.929 13.0052 11.8738 13.159 11.8738C13.3129 11.8738 13.4306 11.929 13.5121 12.0395C13.5937 12.15 13.6344 12.3098 13.6344 12.5189C13.6344 12.728 13.5937 12.8877 13.5121 12.9982C13.4306 13.1087 13.3129 13.1639 13.159 13.1639ZM12.8829 12.6984L13.3859 12.1796C13.3372 12.0888 13.2616 12.0435 13.159 12.0435C12.9644 12.0435 12.8671 12.2019 12.8671 12.5189C12.8671 12.5886 12.8723 12.6484 12.8829 12.6984ZM13.159 12.9943C13.3537 12.9943 13.451 12.8358 13.451 12.5189C13.451 12.4492 13.4457 12.3893 13.4352 12.3393L12.9322 12.8581C12.9808 12.9489 13.0565 12.9943 13.159 12.9943Z" fill="#0FBE00"/>
<path d="M14.3033 13.1639C14.1494 13.1639 14.0317 13.1087 13.9502 12.9982C13.8687 12.8877 13.8279 12.728 13.8279 12.5189C13.8279 12.3098 13.8687 12.15 13.9502 12.0395C14.0317 11.929 14.1494 11.8738 14.3033 11.8738C14.4572 11.8738 14.5749 11.929 14.6564 12.0395C14.7379 12.15 14.7787 12.3098 14.7787 12.5189C14.7787 12.728 14.7379 12.8877 14.6564 12.9982C14.5749 13.1087 14.4572 13.1639 14.3033 13.1639ZM14.0271 12.6984L14.5301 12.1796C14.4815 12.0888 14.4059 12.0435 14.3033 12.0435C14.1087 12.0435 14.0113 12.2019 14.0113 12.5189C14.0113 12.5886 14.0166 12.6484 14.0271 12.6984ZM14.3033 12.9943C14.4979 12.9943 14.5952 12.8358 14.5952 12.5189C14.5952 12.4492 14.59 12.3893 14.5795 12.3393L14.0764 12.8581C14.1251 12.9489 14.2007 12.9943 14.3033 12.9943Z" fill="#0FBE00"/>
<path d="M15.4673 13.1639C15.32 13.1639 15.2043 13.1146 15.1201 13.016C15.0359 12.916 14.9939 12.7753 14.9939 12.5938C14.9939 12.3637 15.0636 12.1875 15.203 12.0652C15.3437 11.9415 15.5501 11.8778 15.8224 11.8738L15.8283 12.0395C15.4338 12.0487 15.2187 12.1953 15.1832 12.4794H15.1872C15.2792 12.39 15.3877 12.3453 15.5127 12.3453C15.5929 12.3453 15.6626 12.3624 15.7218 12.3966C15.7822 12.4294 15.8283 12.4755 15.8598 12.5346C15.8927 12.5938 15.9092 12.6622 15.9092 12.7398C15.9092 12.8253 15.8907 12.8996 15.8539 12.9627C15.8171 13.0258 15.7652 13.0751 15.6981 13.1106C15.6323 13.1461 15.5554 13.1639 15.4673 13.1639ZM15.4712 12.9943C15.5462 12.9943 15.6073 12.9719 15.6547 12.9272C15.702 12.8825 15.7257 12.8226 15.7257 12.7477C15.7257 12.6767 15.704 12.6201 15.6606 12.578C15.6172 12.5346 15.5567 12.5129 15.4791 12.5129C15.4213 12.5129 15.3667 12.5254 15.3154 12.5504C15.2654 12.5754 15.2194 12.6142 15.1773 12.6668C15.1839 12.7694 15.2128 12.8496 15.2641 12.9075C15.3154 12.9653 15.3844 12.9943 15.4712 12.9943Z" fill="#0FBE00"/>
<path d="M16.1401 13.1402V12.9745H16.505V12.1815L16.2368 12.3887L16.1539 12.2762L16.5622 11.8856H16.6865V12.9745H17.0514V13.1402H16.1401Z" fill="#0FBE00"/>
<path d="M17.7361 13.1639C17.5967 13.1639 17.4895 13.1271 17.4146 13.0534C17.3409 12.9798 17.3041 12.8746 17.3041 12.7378V11.858H17.4856V12.7201C17.4856 12.9015 17.5697 12.9923 17.7381 12.9923C17.9064 12.9923 17.9906 12.9015 17.9906 12.7201V11.858H18.1681V12.7378C18.1681 12.8746 18.1306 12.9798 18.0557 13.0534C17.982 13.1271 17.8755 13.1639 17.7361 13.1639Z" fill="#0FBE00"/>
<path d="M18.8054 13.0692V12.6707H18.4069V12.5189H18.8054V12.1224H18.9553V12.5189H19.3538V12.6707H18.9553V13.0692H18.8054Z" fill="#0FBE00"/>
<path d="M20.0246 13.1639C19.8708 13.1639 19.7531 13.1087 19.6715 12.9982C19.59 12.8877 19.5492 12.728 19.5492 12.5189C19.5492 12.3098 19.59 12.15 19.6715 12.0395C19.7531 11.929 19.8708 11.8738 20.0246 11.8738C20.1785 11.8738 20.2962 11.929 20.3777 12.0395C20.4593 12.15 20.5 12.3098 20.5 12.5189C20.5 12.728 20.4593 12.8877 20.3777 12.9982C20.2962 13.1087 20.1785 13.1639 20.0246 13.1639ZM19.7485 12.6984L20.2515 12.1796C20.2028 12.0888 20.1272 12.0435 20.0246 12.0435C19.83 12.0435 19.7327 12.2019 19.7327 12.5189C19.7327 12.5886 19.7379 12.6484 19.7485 12.6984ZM20.0246 12.9943C20.2193 12.9943 20.3166 12.8358 20.3166 12.5189C20.3166 12.4492 20.3113 12.3893 20.3008 12.3393L19.7978 12.8581C19.8464 12.9489 19.9221 12.9943 20.0246 12.9943Z" fill="#0FBE00"/>
<path d="M21.1689 13.1639C21.015 13.1639 20.8973 13.1087 20.8158 12.9982C20.7343 12.8877 20.6935 12.728 20.6935 12.5189C20.6935 12.3098 20.7343 12.15 20.8158 12.0395C20.8973 11.929 21.015 11.8738 21.1689 11.8738C21.3228 11.8738 21.4405 11.929 21.522 12.0395C21.6035 12.15 21.6443 12.3098 21.6443 12.5189C21.6443 12.728 21.6035 12.8877 21.522 12.9982C21.4405 13.1087 21.3228 13.1639 21.1689 13.1639ZM20.8927 12.6984L21.3957 12.1796C21.3471 12.0888 21.2715 12.0435 21.1689 12.0435C20.9743 12.0435 20.8769 12.2019 20.8769 12.5189C20.8769 12.5886 20.8822 12.6484 20.8927 12.6984ZM21.1689 12.9943C21.3635 12.9943 21.4608 12.8358 21.4608 12.5189C21.4608 12.4492 21.4556 12.3893 21.4451 12.3393L20.942 12.8581C20.9907 12.9489 21.0663 12.9943 21.1689 12.9943Z" fill="#0FBE00"/>
<path d="M22.3329 13.1639C22.1856 13.1639 22.0699 13.1146 21.9857 13.016C21.9015 12.916 21.8595 12.7753 21.8595 12.5938C21.8595 12.3637 21.9292 12.1875 22.0686 12.0652C22.2093 11.9415 22.4157 11.8778 22.688 11.8738L22.6939 12.0395C22.2994 12.0487 22.0843 12.1953 22.0488 12.4794H22.0528C22.1448 12.39 22.2533 12.3453 22.3783 12.3453C22.4585 12.3453 22.5282 12.3624 22.5874 12.3966C22.6478 12.4294 22.6939 12.4755 22.7254 12.5346C22.7583 12.5938 22.7748 12.6622 22.7748 12.7398C22.7748 12.8253 22.7563 12.8996 22.7195 12.9627C22.6827 13.0258 22.6308 13.0751 22.5637 13.1106C22.4979 13.1461 22.421 13.1639 22.3329 13.1639ZM22.3368 12.9943C22.4118 12.9943 22.4729 12.9719 22.5203 12.9272C22.5676 12.8825 22.5913 12.8226 22.5913 12.7477C22.5913 12.6767 22.5696 12.6201 22.5262 12.578C22.4828 12.5346 22.4223 12.5129 22.3447 12.5129C22.2869 12.5129 22.2323 12.5254 22.181 12.5504C22.131 12.5754 22.085 12.6142 22.0429 12.6668C22.0495 12.7694 22.0784 12.8496 22.1297 12.9075C22.181 12.9653 22.25 12.9943 22.3368 12.9943Z" fill="#0FBE00"/>
<path d="M23.0254 13.1402V13.0002C23.0254 12.8476 23.0537 12.7299 23.1102 12.6471C23.1668 12.5629 23.2602 12.5024 23.3904 12.4656L23.5462 12.4202C23.5988 12.4058 23.6389 12.3854 23.6665 12.3591C23.6941 12.3328 23.7079 12.2933 23.7079 12.2407C23.7079 12.175 23.6863 12.1256 23.6429 12.0928C23.5995 12.0599 23.537 12.0435 23.4555 12.0435C23.3292 12.0435 23.2174 12.0869 23.1201 12.1736L23.0254 12.0296C23.0899 11.9757 23.1563 11.9363 23.2247 11.9113C23.293 11.8863 23.3693 11.8738 23.4535 11.8738C23.5929 11.8738 23.7007 11.906 23.777 11.9705C23.8533 12.0349 23.8914 12.127 23.8914 12.2466C23.8914 12.3374 23.8677 12.4104 23.8204 12.4656C23.773 12.5208 23.6981 12.5629 23.5955 12.5918L23.4397 12.6372C23.3844 12.653 23.3404 12.6734 23.3075 12.6984C23.2746 12.7233 23.2503 12.7582 23.2345 12.8029C23.2201 12.8463 23.2115 12.9035 23.2089 12.9745H23.8914V13.1402H23.0254Z" fill="#0FBE00"/>
<path d="M25.5721 11.1639C25.4182 11.1639 25.3005 11.1087 25.219 10.9982C25.1375 10.8877 25.0967 10.728 25.0967 10.5189C25.0967 10.3098 25.1375 10.15 25.219 10.0395C25.3005 9.92905 25.4182 9.87381 25.5721 9.87381C25.726 9.87381 25.8437 9.92905 25.9252 10.0395C26.0067 10.15 26.0475 10.3098 26.0475 10.5189C26.0475 10.728 26.0067 10.8877 25.9252 10.9982C25.8437 11.1087 25.726 11.1639 25.5721 11.1639ZM25.2959 10.6984L25.7989 10.1796C25.7503 10.0888 25.6747 10.0435 25.5721 10.0435C25.3775 10.0435 25.2802 10.2019 25.2802 10.5189C25.2802 10.5886 25.2854 10.6484 25.2959 10.6984ZM25.5721 10.9943C25.7667 10.9943 25.864 10.8358 25.864 10.5189C25.864 10.4492 25.8588 10.3893 25.8483 10.3393L25.3452 10.8581C25.3939 10.9489 25.4695 10.9943 25.5721 10.9943Z" fill="#0FBE00"/>
<path d="M26.239 11.1402L26.602 10.6629L26.2489 10.2092H26.4737L26.7302 10.5406L26.9787 10.2092H27.1839L26.8308 10.6707L27.1937 11.1402H26.9689L26.7026 10.797L26.4441 11.1402H26.239Z" fill="#0FBE00"/>
<path d="M27.8606 11.1639C27.7068 11.1639 27.5891 11.1087 27.5075 10.9982C27.426 10.8877 27.3852 10.728 27.3852 10.5189C27.3852 10.3098 27.426 10.15 27.5075 10.0395C27.5891 9.92905 27.7068 9.87381 27.8606 9.87381C28.0145 9.87381 28.1322 9.92905 28.2137 10.0395C28.2953 10.15 28.336 10.3098 28.336 10.5189C28.336 10.728 28.2953 10.8877 28.2137 10.9982C28.1322 11.1087 28.0145 11.1639 27.8606 11.1639ZM27.5845 10.6984L28.0875 10.1796C28.0388 10.0888 27.9632 10.0435 27.8606 10.0435C27.666 10.0435 27.5687 10.2019 27.5687 10.5189C27.5687 10.5886 27.5739 10.6484 27.5845 10.6984ZM27.8606 10.9943C28.0553 10.9943 28.1526 10.8358 28.1526 10.5189C28.1526 10.4492 28.1473 10.3893 28.1368 10.3393L27.6338 10.8581C27.6824 10.9489 27.7581 10.9943 27.8606 10.9943Z" fill="#0FBE00"/>
<path d="M29.0049 11.1639C28.851 11.1639 28.7333 11.1087 28.6518 10.9982C28.5703 10.8877 28.5295 10.728 28.5295 10.5189C28.5295 10.3098 28.5703 10.15 28.6518 10.0395C28.7333 9.92905 28.851 9.87381 29.0049 9.87381C29.1588 9.87381 29.2765 9.92905 29.358 10.0395C29.4395 10.15 29.4803 10.3098 29.4803 10.5189C29.4803 10.728 29.4395 10.8877 29.358 10.9982C29.2765 11.1087 29.1588 11.1639 29.0049 11.1639ZM28.7287 10.6984L29.2317 10.1796C29.1831 10.0888 29.1075 10.0435 29.0049 10.0435C28.8103 10.0435 28.713 10.2019 28.713 10.5189C28.713 10.5886 28.7182 10.6484 28.7287 10.6984ZM29.0049 10.9943C29.1995 10.9943 29.2968 10.8358 29.2968 10.5189C29.2968 10.4492 29.2916 10.3893 29.2811 10.3393L28.778 10.8581C28.8267 10.9489 28.9023 10.9943 29.0049 10.9943Z" fill="#0FBE00"/>
<path d="M30.1492 11.1639C29.9953 11.1639 29.8776 11.1087 29.7961 10.9982C29.7145 10.8877 29.6738 10.728 29.6738 10.5189C29.6738 10.3098 29.7145 10.15 29.7961 10.0395C29.8776 9.92905 29.9953 9.87381 30.1492 9.87381C30.303 9.87381 30.4207 9.92905 30.5023 10.0395C30.5838 10.15 30.6246 10.3098 30.6246 10.5189C30.6246 10.728 30.5838 10.8877 30.5023 10.9982C30.4207 11.1087 30.303 11.1639 30.1492 11.1639ZM29.873 10.6984L30.376 10.1796C30.3274 10.0888 30.2517 10.0435 30.1492 10.0435C29.9545 10.0435 29.8572 10.2019 29.8572 10.5189C29.8572 10.5886 29.8625 10.6484 29.873 10.6984ZM30.1492 10.9943C30.3438 10.9943 30.4411 10.8358 30.4411 10.5189C30.4411 10.4492 30.4358 10.3893 30.4253 10.3393L29.9223 10.8581C29.971 10.9489 30.0466 10.9943 30.1492 10.9943Z" fill="#0FBE00"/>
<path d="M31.2934 11.1639C31.1396 11.1639 31.0219 11.1087 30.9403 10.9982C30.8588 10.8877 30.818 10.728 30.818 10.5189C30.818 10.3098 30.8588 10.15 30.9403 10.0395C31.0219 9.92905 31.1396 9.87381 31.2934 9.87381C31.4473 9.87381 31.565 9.92905 31.6465 10.0395C31.7281 10.15 31.7688 10.3098 31.7688 10.5189C31.7688 10.728 31.7281 10.8877 31.6465 10.9982C31.565 11.1087 31.4473 11.1639 31.2934 11.1639ZM31.0173 10.6984L31.5203 10.1796C31.4716 10.0888 31.396 10.0435 31.2934 10.0435C31.0988 10.0435 31.0015 10.2019 31.0015 10.5189C31.0015 10.5886 31.0067 10.6484 31.0173 10.6984ZM31.2934 10.9943C31.4881 10.9943 31.5854 10.8358 31.5854 10.5189C31.5854 10.4492 31.5801 10.3893 31.5696 10.3393L31.0666 10.8581C31.1152 10.9489 31.1909 10.9943 31.2934 10.9943Z" fill="#0FBE00"/>
<path d="M32.4377 11.1639C32.2838 11.1639 32.1661 11.1087 32.0846 10.9982C32.0031 10.8877 31.9623 10.728 31.9623 10.5189C31.9623 10.3098 32.0031 10.15 32.0846 10.0395C32.1661 9.92905 32.2838 9.87381 32.4377 9.87381C32.5916 9.87381 32.7093 9.92905 32.7908 10.0395C32.8723 10.15 32.9131 10.3098 32.9131 10.5189C32.9131 10.728 32.8723 10.8877 32.7908 10.9982C32.7093 11.1087 32.5916 11.1639 32.4377 11.1639ZM32.1615 10.6984L32.6645 10.1796C32.6159 10.0888 32.5403 10.0435 32.4377 10.0435C32.2431 10.0435 32.1458 10.2019 32.1458 10.5189C32.1458 10.5886 32.151 10.6484 32.1615 10.6984ZM32.4377 10.9943C32.6323 10.9943 32.7296 10.8358 32.7296 10.5189C32.7296 10.4492 32.7244 10.3893 32.7139 10.3393L32.2108 10.8581C32.2595 10.9489 32.3351 10.9943 32.4377 10.9943Z" fill="#0FBE00"/>
<path d="M33.582 11.1639C33.4281 11.1639 33.3104 11.1087 33.2289 10.9982C33.1473 10.8877 33.1066 10.728 33.1066 10.5189C33.1066 10.3098 33.1473 10.15 33.2289 10.0395C33.3104 9.92905 33.4281 9.87381 33.582 9.87381C33.7358 9.87381 33.8535 9.92905 33.9351 10.0395C34.0166 10.15 34.0574 10.3098 34.0574 10.5189C34.0574 10.728 34.0166 10.8877 33.9351 10.9982C33.8535 11.1087 33.7358 11.1639 33.582 11.1639ZM33.3058 10.6984L33.8088 10.1796C33.7602 10.0888 33.6845 10.0435 33.582 10.0435C33.3873 10.0435 33.29 10.2019 33.29 10.5189C33.29 10.5886 33.2953 10.6484 33.3058 10.6984ZM33.582 10.9943C33.7766 10.9943 33.8739 10.8358 33.8739 10.5189C33.8739 10.4492 33.8686 10.3893 33.8581 10.3393L33.3551 10.8581C33.4038 10.9489 33.4794 10.9943 33.582 10.9943Z" fill="#0FBE00"/>
<path d="M34.746 11.1639C34.5987 11.1639 34.4829 11.1146 34.3988 11.016C34.3146 10.916 34.2725 10.7753 34.2725 10.5938C34.2725 10.3637 34.3422 10.1875 34.4816 10.0652C34.6223 9.94154 34.8288 9.87776 35.101 9.87381L35.1069 10.0395C34.7124 10.0487 34.4974 10.1953 34.4619 10.4794H34.4658C34.5579 10.39 34.6664 10.3453 34.7913 10.3453C34.8715 10.3453 34.9412 10.3624 35.0004 10.3966C35.0609 10.4294 35.1069 10.4755 35.1385 10.5346C35.1714 10.5938 35.1878 10.6622 35.1878 10.7398C35.1878 10.8253 35.1694 10.8996 35.1326 10.9627C35.0958 11.0258 35.0438 11.0751 34.9767 11.1106C34.911 11.1461 34.8341 11.1639 34.746 11.1639ZM34.7499 10.9943C34.8249 10.9943 34.886 10.9719 34.9334 10.9272C34.9807 10.8825 35.0044 10.8226 35.0044 10.7477C35.0044 10.6767 34.9827 10.6201 34.9393 10.578C34.8959 10.5346 34.8354 10.5129 34.7578 10.5129C34.6999 10.5129 34.6454 10.5254 34.5941 10.5504C34.5441 10.5754 34.4981 10.6142 34.456 10.6668C34.4626 10.7694 34.4915 10.8496 34.5428 10.9075C34.5941 10.9653 34.6631 10.9943 34.7499 10.9943Z" fill="#0FBE00"/>
<path d="M35.4188 11.1402V10.9745H35.7837V10.1815L35.5154 10.3887L35.4326 10.2762L35.8409 9.88565H35.9652V10.9745H36.3301V11.1402H35.4188Z" fill="#0FBE00"/>
<path d="M37.0148 11.1639C36.8609 11.1639 36.7432 11.1087 36.6617 10.9982C36.5801 10.8877 36.5394 10.728 36.5394 10.5189C36.5394 10.3098 36.5801 10.15 36.6617 10.0395C36.7432 9.92905 36.8609 9.87381 37.0148 9.87381C37.1686 9.87381 37.2863 9.92905 37.3679 10.0395C37.4494 10.15 37.4902 10.3098 37.4902 10.5189C37.4902 10.728 37.4494 10.8877 37.3679 10.9982C37.2863 11.1087 37.1686 11.1639 37.0148 11.1639ZM36.7386 10.6984L37.2416 10.1796C37.193 10.0888 37.1173 10.0435 37.0148 10.0435C36.8201 10.0435 36.7228 10.2019 36.7228 10.5189C36.7228 10.5886 36.7281 10.6484 36.7386 10.6984ZM37.0148 10.9943C37.2094 10.9943 37.3067 10.8358 37.3067 10.5189C37.3067 10.4492 37.3014 10.3893 37.2909 10.3393L36.7879 10.8581C36.8366 10.9489 36.9122 10.9943 37.0148 10.9943Z" fill="#0FBE00"/>
<path d="M37.6817 11.1402L38.0446 10.6629L37.6915 10.2092H37.9164L38.1728 10.5406L38.4214 10.2092H38.6265L38.2734 10.6707L38.6364 11.1402H38.4115L38.1452 10.797L37.8868 11.1402H37.6817Z" fill="#0FBE00"/>
<path d="M39.3033 11.1639C39.1494 11.1639 39.0317 11.1087 38.9502 10.9982C38.8687 10.8877 38.8279 10.728 38.8279 10.5189C38.8279 10.3098 38.8687 10.15 38.9502 10.0395C39.0317 9.92905 39.1494 9.87381 39.3033 9.87381C39.4572 9.87381 39.5749 9.92905 39.6564 10.0395C39.7379 10.15 39.7787 10.3098 39.7787 10.5189C39.7787 10.728 39.7379 10.8877 39.6564 10.9982C39.5749 11.1087 39.4572 11.1639 39.3033 11.1639ZM39.0271 10.6984L39.5301 10.1796C39.4815 10.0888 39.4059 10.0435 39.3033 10.0435C39.1087 10.0435 39.0113 10.2019 39.0113 10.5189C39.0113 10.5886 39.0166 10.6484 39.0271 10.6984ZM39.3033 10.9943C39.4979 10.9943 39.5952 10.8358 39.5952 10.5189C39.5952 10.4492 39.59 10.3893 39.5795 10.3393L39.0764 10.8581C39.1251 10.9489 39.2007 10.9943 39.3033 10.9943Z" fill="#0FBE00"/>
<path d="M40.4476 11.1639C40.2937 11.1639 40.176 11.1087 40.0945 10.9982C40.0129 10.8877 39.9722 10.728 39.9722 10.5189C39.9722 10.3098 40.0129 10.15 40.0945 10.0395C40.176 9.92905 40.2937 9.87381 40.4476 9.87381C40.6014 9.87381 40.7191 9.92905 40.8007 10.0395C40.8822 10.15 40.923 10.3098 40.923 10.5189C40.923 10.728 40.8822 10.8877 40.8007 10.9982C40.7191 11.1087 40.6014 11.1639 40.4476 11.1639ZM40.1714 10.6984L40.6744 10.1796C40.6258 10.0888 40.5501 10.0435 40.4476 10.0435C40.2529 10.0435 40.1556 10.2019 40.1556 10.5189C40.1556 10.5886 40.1609 10.6484 40.1714 10.6984ZM40.4476 10.9943C40.6422 10.9943 40.7395 10.8358 40.7395 10.5189C40.7395 10.4492 40.7342 10.3893 40.7237 10.3393L40.2207 10.8581C40.2694 10.9489 40.345 10.9943 40.4476 10.9943Z" fill="#0FBE00"/>
<path d="M41.5918 11.1639C41.438 11.1639 41.3203 11.1087 41.2387 10.9982C41.1572 10.8877 41.1164 10.728 41.1164 10.5189C41.1164 10.3098 41.1572 10.15 41.2387 10.0395C41.3203 9.92905 41.438 9.87381 41.5918 9.87381C41.7457 9.87381 41.8634 9.92905 41.9449 10.0395C42.0265 10.15 42.0672 10.3098 42.0672 10.5189C42.0672 10.728 42.0265 10.8877 41.9449 10.9982C41.8634 11.1087 41.7457 11.1639 41.5918 11.1639ZM41.3157 10.6984L41.8187 10.1796C41.77 10.0888 41.6944 10.0435 41.5918 10.0435C41.3972 10.0435 41.2999 10.2019 41.2999 10.5189C41.2999 10.5886 41.3051 10.6484 41.3157 10.6984ZM41.5918 10.9943C41.7865 10.9943 41.8838 10.8358 41.8838 10.5189C41.8838 10.4492 41.8785 10.3893 41.868 10.3393L41.365 10.8581C41.4136 10.9489 41.4893 10.9943 41.5918 10.9943Z" fill="#0FBE00"/>
<path d="M42.7361 11.1639C42.5822 11.1639 42.4645 11.1087 42.383 10.9982C42.3015 10.8877 42.2607 10.728 42.2607 10.5189C42.2607 10.3098 42.3015 10.15 42.383 10.0395C42.4645 9.92905 42.5822 9.87381 42.7361 9.87381C42.89 9.87381 43.0077 9.92905 43.0892 10.0395C43.1707 10.15 43.2115 10.3098 43.2115 10.5189C43.2115 10.728 43.1707 10.8877 43.0892 10.9982C43.0077 11.1087 42.89 11.1639 42.7361 11.1639ZM42.4599 10.6984L42.9629 10.1796C42.9143 10.0888 42.8387 10.0435 42.7361 10.0435C42.5415 10.0435 42.4441 10.2019 42.4441 10.5189C42.4441 10.5886 42.4494 10.6484 42.4599 10.6984ZM42.7361 10.9943C42.9307 10.9943 43.028 10.8358 43.028 10.5189C43.028 10.4492 43.0228 10.3893 43.0123 10.3393L42.5092 10.8581C42.5579 10.9489 42.6335 10.9943 42.7361 10.9943Z" fill="#0FBE00"/>
<path d="M43.8804 11.1639C43.7265 11.1639 43.6088 11.1087 43.5273 10.9982C43.4457 10.8877 43.405 10.728 43.405 10.5189C43.405 10.3098 43.4457 10.15 43.5273 10.0395C43.6088 9.92905 43.7265 9.87381 43.8804 9.87381C44.0342 9.87381 44.1519 9.92905 44.2335 10.0395C44.315 10.15 44.3558 10.3098 44.3558 10.5189C44.3558 10.728 44.315 10.8877 44.2335 10.9982C44.1519 11.1087 44.0342 11.1639 43.8804 11.1639ZM43.6042 10.6984L44.1072 10.1796C44.0586 10.0888 43.9829 10.0435 43.8804 10.0435C43.6857 10.0435 43.5884 10.2019 43.5884 10.5189C43.5884 10.5886 43.5937 10.6484 43.6042 10.6984ZM43.8804 10.9943C44.075 10.9943 44.1723 10.8358 44.1723 10.5189C44.1723 10.4492 44.167 10.3893 44.1565 10.3393L43.6535 10.8581C43.7022 10.9489 43.7778 10.9943 43.8804 10.9943Z" fill="#0FBE00"/>
<path d="M45.0246 11.1639C44.8708 11.1639 44.7531 11.1087 44.6715 10.9982C44.59 10.8877 44.5492 10.728 44.5492 10.5189C44.5492 10.3098 44.59 10.15 44.6715 10.0395C44.7531 9.92905 44.8708 9.87381 45.0246 9.87381C45.1785 9.87381 45.2962 9.92905 45.3777 10.0395C45.4593 10.15 45.5 10.3098 45.5 10.5189C45.5 10.728 45.4593 10.8877 45.3777 10.9982C45.2962 11.1087 45.1785 11.1639 45.0246 11.1639ZM44.7485 10.6984L45.2515 10.1796C45.2028 10.0888 45.1272 10.0435 45.0246 10.0435C44.83 10.0435 44.7327 10.2019 44.7327 10.5189C44.7327 10.5886 44.7379 10.6484 44.7485 10.6984ZM45.0246 10.9943C45.2193 10.9943 45.3166 10.8358 45.3166 10.5189C45.3166 10.4492 45.3113 10.3893 45.3008 10.3393L44.7978 10.8581C44.8464 10.9489 44.9221 10.9943 45.0246 10.9943Z" fill="#0FBE00"/>
<path d="M46.1886 11.1639C46.0413 11.1639 45.9256 11.1146 45.8414 11.016C45.7573 10.916 45.7152 10.7753 45.7152 10.5938C45.7152 10.3637 45.7849 10.1875 45.9243 10.0652C46.065 9.94154 46.2715 9.87776 46.5437 9.87381L46.5496 10.0395C46.1551 10.0487 45.9401 10.1953 45.9046 10.4794H45.9085C46.0006 10.39 46.1091 10.3453 46.234 10.3453C46.3142 10.3453 46.3839 10.3624 46.4431 10.3966C46.5036 10.4294 46.5496 10.4755 46.5812 10.5346C46.614 10.5938 46.6305 10.6622 46.6305 10.7398C46.6305 10.8253 46.6121 10.8996 46.5753 10.9627C46.5384 11.0258 46.4865 11.0751 46.4194 11.1106C46.3537 11.1461 46.2767 11.1639 46.1886 11.1639ZM46.1926 10.9943C46.2675 10.9943 46.3287 10.9719 46.376 10.9272C46.4234 10.8825 46.447 10.8226 46.447 10.7477C46.447 10.6767 46.4253 10.6201 46.3819 10.578C46.3385 10.5346 46.278 10.5129 46.2005 10.5129C46.1426 10.5129 46.088 10.5254 46.0367 10.5504C45.9868 10.5754 45.9407 10.6142 45.8986 10.6668C45.9052 10.7694 45.9342 10.8496 45.9854 10.9075C46.0367 10.9653 46.1058 10.9943 46.1926 10.9943Z" fill="#0FBE00"/>
<path d="M46.8812 11.1402V11.0002C46.8812 10.8476 46.9094 10.7299 46.966 10.6471C47.0225 10.5629 47.1159 10.5024 47.2461 10.4656L47.4019 10.4202C47.4545 10.4058 47.4946 10.3854 47.5223 10.3591C47.5499 10.3328 47.5637 10.2933 47.5637 10.2407C47.5637 10.175 47.542 10.1256 47.4986 10.0928C47.4552 10.0599 47.3927 10.0435 47.3112 10.0435C47.1849 10.0435 47.0732 10.0869 46.9758 10.1736L46.8812 10.0296C46.9456 9.97573 47.012 9.93628 47.0804 9.91129C47.1488 9.88631 47.2251 9.87381 47.3092 9.87381C47.4486 9.87381 47.5565 9.90603 47.6327 9.97047C47.709 10.0349 47.7471 10.127 47.7471 10.2466C47.7471 10.3374 47.7235 10.4104 47.6761 10.4656C47.6288 10.5208 47.5538 10.5629 47.4512 10.5918L47.2954 10.6372C47.2402 10.653 47.1961 10.6734 47.1632 10.6984C47.1304 10.7233 47.106 10.7582 47.0903 10.8029C47.0758 10.8463 47.0672 10.9035 47.0646 10.9745H47.7471V11.1402H46.8812Z" fill="#0FBE00"/>
<path d="M48.4574 11.1639C48.3036 11.1639 48.1859 11.1087 48.1043 10.9982C48.0228 10.8877 47.982 10.728 47.982 10.5189C47.982 10.3098 48.0228 10.15 48.1043 10.0395C48.1859 9.92905 48.3036 9.87381 48.4574 9.87381C48.6113 9.87381 48.729 9.92905 48.8105 10.0395C48.8921 10.15 48.9328 10.3098 48.9328 10.5189C48.9328 10.728 48.8921 10.8877 48.8105 10.9982C48.729 11.1087 48.6113 11.1639 48.4574 11.1639ZM48.1813 10.6984L48.6843 10.1796C48.6356 10.0888 48.56 10.0435 48.4574 10.0435C48.2628 10.0435 48.1655 10.2019 48.1655 10.5189C48.1655 10.5886 48.1707 10.6484 48.1813 10.6984ZM48.4574 10.9943C48.6521 10.9943 48.7494 10.8358 48.7494 10.5189C48.7494 10.4492 48.7441 10.3893 48.7336 10.3393L48.2306 10.8581C48.2792 10.9489 48.3549 10.9943 48.4574 10.9943Z" fill="#0FBE00"/>
<path d="M25.0947 13.1402L25.4577 12.6629L25.1046 12.2092H25.3295L25.5859 12.5406L25.8345 12.2092H26.0396L25.6865 12.6707L26.0495 13.1402H25.8246L25.5583 12.797L25.2999 13.1402H25.0947Z" fill="#0FBE00"/>
<path d="M26.7164 13.1639C26.5625 13.1639 26.4448 13.1087 26.3633 12.9982C26.2817 12.8877 26.241 12.728 26.241 12.5189C26.241 12.3098 26.2817 12.15 26.3633 12.0395C26.4448 11.929 26.5625 11.8738 26.7164 11.8738C26.8702 11.8738 26.9879 11.929 27.0695 12.0395C27.151 12.15 27.1918 12.3098 27.1918 12.5189C27.1918 12.728 27.151 12.8877 27.0695 12.9982C26.9879 13.1087 26.8702 13.1639 26.7164 13.1639ZM26.4402 12.6984L26.9432 12.1796C26.8946 12.0888 26.8189 12.0435 26.7164 12.0435C26.5217 12.0435 26.4244 12.2019 26.4244 12.5189C26.4244 12.5886 26.4297 12.6484 26.4402 12.6984ZM26.7164 12.9943C26.911 12.9943 27.0083 12.8358 27.0083 12.5189C27.0083 12.4492 27.003 12.3893 26.9925 12.3393L26.4895 12.8581C26.5382 12.9489 26.6138 12.9943 26.7164 12.9943Z" fill="#0FBE00"/>
<path d="M27.8606 13.1639C27.7068 13.1639 27.5891 13.1087 27.5075 12.9982C27.426 12.8877 27.3852 12.728 27.3852 12.5189C27.3852 12.3098 27.426 12.15 27.5075 12.0395C27.5891 11.929 27.7068 11.8738 27.8606 11.8738C28.0145 11.8738 28.1322 11.929 28.2137 12.0395C28.2953 12.15 28.336 12.3098 28.336 12.5189C28.336 12.728 28.2953 12.8877 28.2137 12.9982C28.1322 13.1087 28.0145 13.1639 27.8606 13.1639ZM27.5845 12.6984L28.0875 12.1796C28.0388 12.0888 27.9632 12.0435 27.8606 12.0435C27.666 12.0435 27.5687 12.2019 27.5687 12.5189C27.5687 12.5886 27.5739 12.6484 27.5845 12.6984ZM27.8606 12.9943C28.0553 12.9943 28.1526 12.8358 28.1526 12.5189C28.1526 12.4492 28.1473 12.3893 28.1368 12.3393L27.6338 12.8581C27.6824 12.9489 27.7581 12.9943 27.8606 12.9943Z" fill="#0FBE00"/>
<path d="M29.0049 13.1639C28.851 13.1639 28.7333 13.1087 28.6518 12.9982C28.5703 12.8877 28.5295 12.728 28.5295 12.5189C28.5295 12.3098 28.5703 12.15 28.6518 12.0395C28.7333 11.929 28.851 11.8738 29.0049 11.8738C29.1588 11.8738 29.2765 11.929 29.358 12.0395C29.4395 12.15 29.4803 12.3098 29.4803 12.5189C29.4803 12.728 29.4395 12.8877 29.358 12.9982C29.2765 13.1087 29.1588 13.1639 29.0049 13.1639ZM28.7287 12.6984L29.2317 12.1796C29.1831 12.0888 29.1075 12.0435 29.0049 12.0435C28.8103 12.0435 28.713 12.2019 28.713 12.5189C28.713 12.5886 28.7182 12.6484 28.7287 12.6984ZM29.0049 12.9943C29.1995 12.9943 29.2968 12.8358 29.2968 12.5189C29.2968 12.4492 29.2916 12.3893 29.2811 12.3393L28.778 12.8581C28.8267 12.9489 28.9023 12.9943 29.0049 12.9943Z" fill="#0FBE00"/>
<path d="M29.6974 13.1402V12.9745H30.0624V12.1815L29.7941 12.3887L29.7112 12.2762L30.1196 11.8856H30.2438V12.9745H30.6088V13.1402H29.6974Z" fill="#0FBE00"/>
<path d="M31.2934 13.1639C31.1396 13.1639 31.0219 13.1087 30.9403 12.9982C30.8588 12.8877 30.818 12.728 30.818 12.5189C30.818 12.3098 30.8588 12.15 30.9403 12.0395C31.0219 11.929 31.1396 11.8738 31.2934 11.8738C31.4473 11.8738 31.565 11.929 31.6465 12.0395C31.7281 12.15 31.7688 12.3098 31.7688 12.5189C31.7688 12.728 31.7281 12.8877 31.6465 12.9982C31.565 13.1087 31.4473 13.1639 31.2934 13.1639ZM31.0173 12.6984L31.5203 12.1796C31.4716 12.0888 31.396 12.0435 31.2934 12.0435C31.0988 12.0435 31.0015 12.2019 31.0015 12.5189C31.0015 12.5886 31.0067 12.6484 31.0173 12.6984ZM31.2934 12.9943C31.4881 12.9943 31.5854 12.8358 31.5854 12.5189C31.5854 12.4492 31.5801 12.3893 31.5696 12.3393L31.0666 12.8581C31.1152 12.9489 31.1909 12.9943 31.2934 12.9943Z" fill="#0FBE00"/>
<path d="M32.5541 13.1402V12.8581H31.9307V12.7201L32.4318 11.8975H32.631L32.1477 12.6944H32.5541V12.3078L32.7356 12.2052V12.6944H32.9486V12.8581H32.7356V13.1402H32.5541Z" fill="#0FBE00"/>
<path d="M33.582 13.1639C33.4281 13.1639 33.3104 13.1087 33.2289 12.9982C33.1473 12.8877 33.1066 12.728 33.1066 12.5189C33.1066 12.3098 33.1473 12.15 33.2289 12.0395C33.3104 11.929 33.4281 11.8738 33.582 11.8738C33.7358 11.8738 33.8535 11.929 33.9351 12.0395C34.0166 12.15 34.0574 12.3098 34.0574 12.5189C34.0574 12.728 34.0166 12.8877 33.9351 12.9982C33.8535 13.1087 33.7358 13.1639 33.582 13.1639ZM33.3058 12.6984L33.8088 12.1796C33.7602 12.0888 33.6845 12.0435 33.582 12.0435C33.3873 12.0435 33.29 12.2019 33.29 12.5189C33.29 12.5886 33.2953 12.6484 33.3058 12.6984ZM33.582 12.9943C33.7766 12.9943 33.8739 12.8358 33.8739 12.5189C33.8739 12.4492 33.8686 12.3893 33.8581 12.3393L33.3551 12.8581C33.4038 12.9489 33.4794 12.9943 33.582 12.9943Z" fill="#0FBE00"/>
<path d="M34.7262 13.1639C34.5724 13.1639 34.4547 13.1087 34.3731 12.9982C34.2916 12.8877 34.2508 12.728 34.2508 12.5189C34.2508 12.3098 34.2916 12.15 34.3731 12.0395C34.4547 11.929 34.5724 11.8738 34.7262 11.8738C34.8801 11.8738 34.9978 11.929 35.0793 12.0395C35.1609 12.15 35.2016 12.3098 35.2016 12.5189C35.2016 12.728 35.1609 12.8877 35.0793 12.9982C34.9978 13.1087 34.8801 13.1639 34.7262 13.1639ZM34.4501 12.6984L34.9531 12.1796C34.9044 12.0888 34.8288 12.0435 34.7262 12.0435C34.5316 12.0435 34.4343 12.2019 34.4343 12.5189C34.4343 12.5886 34.4395 12.6484 34.4501 12.6984ZM34.7262 12.9943C34.9209 12.9943 35.0182 12.8358 35.0182 12.5189C35.0182 12.4492 35.0129 12.3893 35.0024 12.3393L34.4994 12.8581C34.548 12.9489 34.6237 12.9943 34.7262 12.9943Z" fill="#0FBE00"/>
<path d="M35.8705 13.1639C35.7311 13.1639 35.6239 13.1271 35.549 13.0534C35.4753 12.9798 35.4385 12.8746 35.4385 12.7378V11.858H35.62V12.7201C35.62 12.9015 35.7041 12.9923 35.8725 12.9923C36.0408 12.9923 36.125 12.9015 36.125 12.7201V11.858H36.3025V12.7378C36.3025 12.8746 36.265 12.9798 36.1901 13.0534C36.1164 13.1271 36.0099 13.1639 35.8705 13.1639Z" fill="#0FBE00"/>
<path d="M36.9398 13.0692V12.6707H36.5413V12.5189H36.9398V12.1224H37.0897V12.5189H37.4882V12.6707H37.0897V13.0692H36.9398Z" fill="#0FBE00"/>
<path d="M38.159 13.1639C38.0052 13.1639 37.8875 13.1087 37.8059 12.9982C37.7244 12.8877 37.6836 12.728 37.6836 12.5189C37.6836 12.3098 37.7244 12.15 37.8059 12.0395C37.8875 11.929 38.0052 11.8738 38.159 11.8738C38.3129 11.8738 38.4306 11.929 38.5121 12.0395C38.5937 12.15 38.6344 12.3098 38.6344 12.5189C38.6344 12.728 38.5937 12.8877 38.5121 12.9982C38.4306 13.1087 38.3129 13.1639 38.159 13.1639ZM37.8829 12.6984L38.3859 12.1796C38.3372 12.0888 38.2616 12.0435 38.159 12.0435C37.9644 12.0435 37.8671 12.2019 37.8671 12.5189C37.8671 12.5886 37.8723 12.6484 37.8829 12.6984ZM38.159 12.9943C38.3537 12.9943 38.451 12.8358 38.451 12.5189C38.451 12.4492 38.4457 12.3893 38.4352 12.3393L37.9322 12.8581C37.9808 12.9489 38.0565 12.9943 38.159 12.9943Z" fill="#0FBE00"/>
<path d="M39.3033 13.1639C39.1494 13.1639 39.0317 13.1087 38.9502 12.9982C38.8687 12.8877 38.8279 12.728 38.8279 12.5189C38.8279 12.3098 38.8687 12.15 38.9502 12.0395C39.0317 11.929 39.1494 11.8738 39.3033 11.8738C39.4572 11.8738 39.5749 11.929 39.6564 12.0395C39.7379 12.15 39.7787 12.3098 39.7787 12.5189C39.7787 12.728 39.7379 12.8877 39.6564 12.9982C39.5749 13.1087 39.4572 13.1639 39.3033 13.1639ZM39.0271 12.6984L39.5301 12.1796C39.4815 12.0888 39.4059 12.0435 39.3033 12.0435C39.1087 12.0435 39.0113 12.2019 39.0113 12.5189C39.0113 12.5886 39.0166 12.6484 39.0271 12.6984ZM39.3033 12.9943C39.4979 12.9943 39.5952 12.8358 39.5952 12.5189C39.5952 12.4492 39.59 12.3893 39.5795 12.3393L39.0764 12.8581C39.1251 12.9489 39.2007 12.9943 39.3033 12.9943Z" fill="#0FBE00"/>
<path d="M40.4673 13.1639C40.32 13.1639 40.2043 13.1146 40.1201 13.016C40.0359 12.916 39.9939 12.7753 39.9939 12.5938C39.9939 12.3637 40.0636 12.1875 40.203 12.0652C40.3437 11.9415 40.5501 11.8778 40.8224 11.8738L40.8283 12.0395C40.4338 12.0487 40.2187 12.1953 40.1832 12.4794H40.1872C40.2792 12.39 40.3877 12.3453 40.5127 12.3453C40.5929 12.3453 40.6626 12.3624 40.7218 12.3966C40.7822 12.4294 40.8283 12.4755 40.8598 12.5346C40.8927 12.5938 40.9092 12.6622 40.9092 12.7398C40.9092 12.8253 40.8907 12.8996 40.8539 12.9627C40.8171 13.0258 40.7652 13.0751 40.6981 13.1106C40.6323 13.1461 40.5554 13.1639 40.4673 13.1639ZM40.4712 12.9943C40.5462 12.9943 40.6073 12.9719 40.6547 12.9272C40.702 12.8825 40.7257 12.8226 40.7257 12.7477C40.7257 12.6767 40.704 12.6201 40.6606 12.578C40.6172 12.5346 40.5567 12.5129 40.4791 12.5129C40.4213 12.5129 40.3667 12.5254 40.3154 12.5504C40.2654 12.5754 40.2194 12.6142 40.1773 12.6668C40.1839 12.7694 40.2128 12.8496 40.2641 12.9075C40.3154 12.9653 40.3844 12.9943 40.4712 12.9943Z" fill="#0FBE00"/>
<path d="M41.1401 13.1402V12.9745H41.505V12.1815L41.2368 12.3887L41.1539 12.2762L41.5622 11.8856H41.6865V12.9745H42.0514V13.1402H41.1401Z" fill="#0FBE00"/>
<path d="M42.7361 13.1639C42.5967 13.1639 42.4895 13.1271 42.4146 13.0534C42.3409 12.9798 42.3041 12.8746 42.3041 12.7378V11.858H42.4856V12.7201C42.4856 12.9015 42.5697 12.9923 42.7381 12.9923C42.9064 12.9923 42.9906 12.9015 42.9906 12.7201V11.858H43.1681V12.7378C43.1681 12.8746 43.1306 12.9798 43.0557 13.0534C42.982 13.1271 42.8755 13.1639 42.7361 13.1639Z" fill="#0FBE00"/>
<path d="M43.8054 13.0692V12.6707H43.4069V12.5189H43.8054V12.1224H43.9553V12.5189H44.3538V12.6707H43.9553V13.0692H43.8054Z" fill="#0FBE00"/>
<path d="M45.0246 13.1639C44.8708 13.1639 44.7531 13.1087 44.6715 12.9982C44.59 12.8877 44.5492 12.728 44.5492 12.5189C44.5492 12.3098 44.59 12.15 44.6715 12.0395C44.7531 11.929 44.8708 11.8738 45.0246 11.8738C45.1785 11.8738 45.2962 11.929 45.3777 12.0395C45.4593 12.15 45.5 12.3098 45.5 12.5189C45.5 12.728 45.4593 12.8877 45.3777 12.9982C45.2962 13.1087 45.1785 13.1639 45.0246 13.1639ZM44.7485 12.6984L45.2515 12.1796C45.2028 12.0888 45.1272 12.0435 45.0246 12.0435C44.83 12.0435 44.7327 12.2019 44.7327 12.5189C44.7327 12.5886 44.7379 12.6484 44.7485 12.6984ZM45.0246 12.9943C45.2193 12.9943 45.3166 12.8358 45.3166 12.5189C45.3166 12.4492 45.3113 12.3893 45.3008 12.3393L44.7978 12.8581C44.8464 12.9489 44.9221 12.9943 45.0246 12.9943Z" fill="#0FBE00"/>
<path d="M46.1689 13.1639C46.015 13.1639 45.8973 13.1087 45.8158 12.9982C45.7343 12.8877 45.6935 12.728 45.6935 12.5189C45.6935 12.3098 45.7343 12.15 45.8158 12.0395C45.8973 11.929 46.015 11.8738 46.1689 11.8738C46.3228 11.8738 46.4405 11.929 46.522 12.0395C46.6035 12.15 46.6443 12.3098 46.6443 12.5189C46.6443 12.728 46.6035 12.8877 46.522 12.9982C46.4405 13.1087 46.3228 13.1639 46.1689 13.1639ZM45.8927 12.6984L46.3957 12.1796C46.3471 12.0888 46.2715 12.0435 46.1689 12.0435C45.9743 12.0435 45.8769 12.2019 45.8769 12.5189C45.8769 12.5886 45.8822 12.6484 45.8927 12.6984ZM46.1689 12.9943C46.3635 12.9943 46.4608 12.8358 46.4608 12.5189C46.4608 12.4492 46.4556 12.3893 46.4451 12.3393L45.942 12.8581C45.9907 12.9489 46.0663 12.9943 46.1689 12.9943Z" fill="#0FBE00"/>
<path d="M47.3329 13.1639C47.1856 13.1639 47.0699 13.1146 46.9857 13.016C46.9015 12.916 46.8595 12.7753 46.8595 12.5938C46.8595 12.3637 46.9292 12.1875 47.0686 12.0652C47.2093 11.9415 47.4157 11.8778 47.688 11.8738L47.6939 12.0395C47.2994 12.0487 47.0843 12.1953 47.0488 12.4794H47.0528C47.1448 12.39 47.2533 12.3453 47.3783 12.3453C47.4585 12.3453 47.5282 12.3624 47.5874 12.3966C47.6478 12.4294 47.6939 12.4755 47.7254 12.5346C47.7583 12.5938 47.7748 12.6622 47.7748 12.7398C47.7748 12.8253 47.7563 12.8996 47.7195 12.9627C47.6827 13.0258 47.6308 13.0751 47.5637 13.1106C47.4979 13.1461 47.421 13.1639 47.3329 13.1639ZM47.3368 12.9943C47.4118 12.9943 47.4729 12.9719 47.5203 12.9272C47.5676 12.8825 47.5913 12.8226 47.5913 12.7477C47.5913 12.6767 47.5696 12.6201 47.5262 12.578C47.4828 12.5346 47.4223 12.5129 47.3447 12.5129C47.2869 12.5129 47.2323 12.5254 47.181 12.5504C47.131 12.5754 47.085 12.6142 47.0429 12.6668C47.0495 12.7694 47.0784 12.8496 47.1297 12.9075C47.181 12.9653 47.25 12.9943 47.3368 12.9943Z" fill="#0FBE00"/>
<path d="M48.0254 13.1402V13.0002C48.0254 12.8476 48.0537 12.7299 48.1102 12.6471C48.1668 12.5629 48.2602 12.5024 48.3904 12.4656L48.5462 12.4202C48.5988 12.4058 48.6389 12.3854 48.6665 12.3591C48.6941 12.3328 48.708 12.2933 48.708 12.2407C48.708 12.175 48.6863 12.1256 48.6429 12.0928C48.5995 12.0599 48.537 12.0435 48.4555 12.0435C48.3292 12.0435 48.2174 12.0869 48.1201 12.1736L48.0254 12.0296C48.0899 11.9757 48.1563 11.9363 48.2247 11.9113C48.293 11.8863 48.3693 11.8738 48.4535 11.8738C48.5929 11.8738 48.7007 11.906 48.777 11.9705C48.8533 12.0349 48.8914 12.127 48.8914 12.2466C48.8914 12.3374 48.8677 12.4104 48.8204 12.4656C48.773 12.5208 48.6981 12.5629 48.5955 12.5918L48.4397 12.6372C48.3844 12.653 48.3404 12.6734 48.3075 12.6984C48.2746 12.7233 48.2503 12.7582 48.2345 12.8029C48.2201 12.8463 48.2115 12.9035 48.2089 12.9745H48.8914V13.1402H48.0254Z" fill="#0FBE00"/>
<path d="M9.08096 9.29471C8.01675 9.29471 7.17996 9.0072 6.57062 8.43218C5.96127 7.85716 5.65659 7.07187 5.65659 6.07632C5.65659 5.43264 5.78962 4.8705 6.05567 4.38988C6.32173 3.90927 6.69077 3.53594 7.1628 3.26988C7.63483 2.99525 8.1841 2.85793 8.81061 2.85793C9.41996 2.85793 9.94778 2.98667 10.3941 3.24414C10.8489 3.49303 11.2008 3.8449 11.4497 4.29977C11.6986 4.75463 11.823 5.28674 11.823 5.89609C11.823 6.00766 11.8187 6.12352 11.8102 6.24368C11.8016 6.35525 11.7844 6.4754 11.7587 6.60414H7.20142C7.36448 7.53961 7.99529 8.00735 9.09383 8.00735C9.73751 8.00735 10.3683 7.80996 10.9862 7.41517L11.5527 8.53517C11.1579 8.80122 10.7631 8.99433 10.3683 9.11448C9.97353 9.23463 9.54441 9.29471 9.08096 9.29471ZM7.21429 5.45839H10.3297C10.1838 4.58299 9.67314 4.14529 8.79774 4.14529C7.93092 4.14529 7.40311 4.58299 7.21429 5.45839Z" fill="#0FBE00"/>
<path d="M13.5105 9.14023V3.01241H14.6305L14.7592 3.54023C15.0853 3.29992 15.4072 3.12827 15.7247 3.02529C16.0509 2.91372 16.3941 2.85793 16.7546 2.85793C17.4755 2.85793 18.0291 3.06391 18.4153 3.47586C18.8015 3.87923 18.9946 4.45854 18.9946 5.21379V9.14023H17.4755V5.44552C17.4755 5.00781 17.3897 4.69885 17.2181 4.51862C17.055 4.33839 16.7675 4.24827 16.3555 4.24827C16.1152 4.24827 15.8878 4.27831 15.6732 4.33839C15.4672 4.38988 15.2527 4.47571 15.0295 4.59586V9.14023H13.5105Z" fill="#0FBE00"/>
<path d="M24.1837 9.29471C23.5142 9.29471 22.9306 9.16597 22.4328 8.9085C21.9437 8.64245 21.5617 8.26912 21.2871 7.7885C21.0211 7.30789 20.888 6.73716 20.888 6.07632C20.888 5.41548 21.0211 4.84475 21.2871 4.36414C21.5617 3.88352 21.9437 3.51448 22.4328 3.25701C22.9306 2.99096 23.5142 2.85793 24.1837 2.85793C24.9818 2.85793 25.7113 3.0682 26.3722 3.48873L25.8443 4.73747C25.5268 4.55724 25.2436 4.4328 24.9947 4.36414C24.7544 4.28689 24.4969 4.24827 24.2223 4.24827C23.0293 4.24827 22.4328 4.85762 22.4328 6.07632C22.4328 7.29502 23.0293 7.90436 24.2223 7.90436C24.5227 7.90436 24.8059 7.86145 25.0719 7.77563C25.338 7.68981 25.6469 7.53961 25.9988 7.32505L26.5653 8.53517C25.8529 9.04153 25.0591 9.29471 24.1837 9.29471Z" fill="black"/>
<path d="M31.1364 9.29471C30.5185 9.29471 29.9735 9.16168 29.5014 8.89563C29.0294 8.62099 28.6604 8.24337 28.3943 7.76276C28.1283 7.27356 27.9952 6.71141 27.9952 6.07632C27.9952 5.43264 28.1283 4.8705 28.3943 4.38988C28.6604 3.90927 29.0294 3.53594 29.5014 3.26988C29.9735 2.99525 30.5185 2.85793 31.1364 2.85793C31.7543 2.85793 32.2993 2.99525 32.7713 3.26988C33.2434 3.53594 33.6124 3.90927 33.8784 4.38988C34.1445 4.8705 34.2775 5.43264 34.2775 6.07632C34.2775 6.71141 34.1445 7.27356 33.8784 7.76276C33.6124 8.24337 33.2434 8.62099 32.7713 8.89563C32.2993 9.16168 31.7543 9.29471 31.1364 9.29471ZM31.1364 7.90436C31.6342 7.90436 32.0247 7.74559 32.3079 7.42804C32.5911 7.10191 32.7327 6.65134 32.7327 6.07632C32.7327 5.5013 32.5911 5.05502 32.3079 4.73747C32.0247 4.41134 31.6342 4.24827 31.1364 4.24827C30.6386 4.24827 30.2481 4.41134 29.9649 4.73747C29.6817 5.05502 29.5401 5.5013 29.5401 6.07632C29.5401 6.65134 29.6817 7.10191 29.9649 7.42804C30.2481 7.74559 30.6386 7.90436 31.1364 7.90436Z" fill="black"/>
<path d="M38.1663 9.29471C37.3596 9.29471 36.7159 9.0072 36.2353 8.43218C35.7633 7.84858 35.5273 7.06329 35.5273 6.07632C35.5273 5.08935 35.7633 4.30835 36.2353 3.73333C36.7159 3.14973 37.3596 2.85793 38.1663 2.85793C38.4496 2.85793 38.7285 2.90084 39.0031 2.98667C39.2863 3.06391 39.5653 3.18835 39.8399 3.36V0H41.359V9.14023H40.239L40.1103 8.62528C39.4752 9.07157 38.8272 9.29471 38.1663 9.29471ZM38.5526 7.90436C38.9903 7.90436 39.4194 7.7885 39.8399 7.55678V4.59586C39.4194 4.36414 38.9903 4.24827 38.5526 4.24827C37.557 4.24827 37.0592 4.85762 37.0592 6.07632C37.0592 7.29502 37.557 7.90436 38.5526 7.90436Z" fill="black"/>
<path d="M46.4193 9.29471C45.3551 9.29471 44.5183 9.0072 43.909 8.43218C43.2996 7.85716 42.9949 7.07187 42.9949 6.07632C42.9949 5.43264 43.128 4.8705 43.394 4.38988C43.6601 3.90927 44.0291 3.53594 44.5011 3.26988C44.9732 2.99525 45.5224 2.85793 46.149 2.85793C46.7583 2.85793 47.2861 2.98667 47.7324 3.24414C48.1873 3.49303 48.5392 3.8449 48.788 4.29977C49.0369 4.75463 49.1614 5.28674 49.1614 5.89609C49.1614 6.00766 49.1571 6.12352 49.1485 6.24368C49.1399 6.35525 49.1228 6.4754 49.097 6.60414H44.5398C44.7028 7.53961 45.3336 8.00735 46.4322 8.00735C47.0759 8.00735 47.7067 7.80996 48.3246 7.41517L48.891 8.53517C48.4962 8.80122 48.1015 8.99433 47.7067 9.11448C47.3119 9.23463 46.8828 9.29471 46.4193 9.29471ZM44.5526 5.45839H47.668C47.5221 4.58299 47.0115 4.14529 46.1361 4.14529C45.2693 4.14529 44.7415 4.58299 44.5526 5.45839Z" fill="black"/>
</svg>
